<svg xmlns="http://www.w3.org/2000/svg" xmlns:xlink="http://www.w3.org/1999/xlink" viewBox="0 0 309.22 19.19"><defs><style>.cls-1{fill:url(#linear-gradient);}.cls-2{fill:url(#linear-gradient-2);}.cls-3{fill:url(#linear-gradient-3);}.cls-4{fill:url(#linear-gradient-4);}.cls-5{fill:url(#linear-gradient-5);}.cls-6{fill:url(#linear-gradient-6);}.cls-7{fill:url(#linear-gradient-7);}.cls-8{fill:url(#linear-gradient-8);}.cls-9{fill:url(#linear-gradient-9);}.cls-10{fill:url(#linear-gradient-10);}.cls-11{fill:url(#linear-gradient-11);}.cls-12{fill:url(#linear-gradient-12);}.cls-13{fill:url(#linear-gradient-13);}.cls-14{fill:url(#linear-gradient-14);}</style><linearGradient id="linear-gradient" x1="90.37" y1="10.23" x2="112.97" y2="10.23" gradientUnits="userSpaceOnUse"><stop offset="0" stop-color="#fae885"/><stop offset="0.25" stop-color="#916d31"/><stop offset="0.35" stop-color="#ba9043"/><stop offset="1" stop-color="#fff793"/></linearGradient><linearGradient id="linear-gradient-2" x1="111.38" y1="9.03" x2="134.02" y2="9.03" xlink:href="#linear-gradient"/><linearGradient id="linear-gradient-3" x1="132.73" y1="10.23" x2="155.33" y2="10.23" xlink:href="#linear-gradient"/><linearGradient id="linear-gradient-4" x1="153.74" y1="9.03" x2="176.38" y2="9.03" xlink:href="#linear-gradient"/><linearGradient id="linear-gradient-5" x1="174.61" y1="10.23" x2="197.21" y2="10.23" xlink:href="#linear-gradient"/><linearGradient id="linear-gradient-6" x1="195.62" y1="9.03" x2="218.26" y2="9.03" xlink:href="#linear-gradient"/><linearGradient id="linear-gradient-7" x1="217.07" y1="10.35" x2="309.22" y2="10.35" xlink:href="#linear-gradient"/><linearGradient id="linear-gradient-8" x1="0" y1="10.35" x2="92.14" y2="10.35" xlink:href="#linear-gradient"/><linearGradient id="linear-gradient-9" x1="117.13" y1="10.76" x2="121.13" y2="10.76" xlink:href="#linear-gradient"/><linearGradient id="linear-gradient-10" x1="138.35" y1="8.69" x2="142.35" y2="8.69" xlink:href="#linear-gradient"/><linearGradient id="linear-gradient-11" x1="159.42" y1="10.81" x2="163.42" y2="10.81" xlink:href="#linear-gradient"/><linearGradient id="linear-gradient-12" x1="180.23" y1="8.64" x2="184.23" y2="8.64" xlink:href="#linear-gradient"/><linearGradient id="linear-gradient-13" x1="201.35" y1="10.81" x2="205.35" y2="10.81" xlink:href="#linear-gradient"/><linearGradient id="linear-gradient-14" x1="96.01" y1="8.59" x2="100.01" y2="8.59" xlink:href="#linear-gradient"/></defs><g id="Layer_2" data-name="Layer 2"><g id="Text"><path class="cls-1" d="M113,7.1a12.51,12.51,0,0,1-10,11.82,12.19,12.19,0,0,1-4.22.15,9.88,9.88,0,0,1-4-1.56,10.06,10.06,0,0,1-3-3.1,9.82,9.82,0,0,1-1.37-4.11l-.05-.54V9.21a6.82,6.82,0,0,1,.06-1.1A7.73,7.73,0,0,1,91.05,6a7.92,7.92,0,0,1,2.87-3.38,7.59,7.59,0,0,1,2-.95,8,8,0,0,1,1.1-.26,7,7,0,0,1,1.12-.08,6.22,6.22,0,0,1,6.37,5.65,5.41,5.41,0,0,1-.3,2.37,5.12,5.12,0,0,1-1.4,2,4.76,4.76,0,0,1-2.16,1,4.32,4.32,0,0,1-2.38-.18,3.52,3.52,0,0,1-2.22-3.77.37.37,0,0,1,.42-.29.36.36,0,0,1,.29.33,2.69,2.69,0,0,0,2,2.43,3.11,3.11,0,0,0,1.57-.06,3.44,3.44,0,0,0,1.38-.78c1.61-1.44,1.21-4.32-.45-5.78a4.4,4.4,0,0,0-3.07-1.14,6.35,6.35,0,0,0-.87,0,8.23,8.23,0,0,0-.86.19A6.18,6.18,0,0,0,92.6,6.65a6.65,6.65,0,0,0-.52,3.49,8.71,8.71,0,0,0,1.09,3.46,8.55,8.55,0,0,0,2.46,2.69A8.46,8.46,0,0,0,99,17.72a11,11,0,0,0,3.76,0,11.73,11.73,0,0,0,6.58-3.62,11.94,11.94,0,0,0,3.05-7h0a.27.27,0,0,1,.31-.25A.28.28,0,0,1,113,7.1Z"/><path class="cls-2" d="M133.55,12.35a12.33,12.33,0,0,0-3.24-6.87A11.67,11.67,0,0,0,123.82,2a11.1,11.1,0,0,0-3.68-.05,8.58,8.58,0,0,0-3.31,1.36,8.45,8.45,0,0,0-2.45,2.6,8.41,8.41,0,0,0-1.11,3.41,6.54,6.54,0,0,0,.47,3.46A6.08,6.08,0,0,0,116,15.39a6.22,6.22,0,0,0,1.58.76,8.29,8.29,0,0,0,.86.21,6.4,6.4,0,0,0,.88.07,4.49,4.49,0,0,0,3.17-1.1c1.75-1.45,2.27-4.51.51-6.08a3.52,3.52,0,0,0-1.49-.82,3.09,3.09,0,0,0-1.68,0A2.68,2.68,0,0,0,117.92,11a.38.38,0,0,1-.76.05h0a3.54,3.54,0,0,1,2.31-3.6,4.53,4.53,0,0,1,4.31.88,4.81,4.81,0,0,1,1.34,1.86,5.08,5.08,0,0,1,.3,2.27,6.1,6.1,0,0,1-6.14,5.59,8.5,8.5,0,0,1-1.12-.06,8.15,8.15,0,0,1-1.09-.24,7.26,7.26,0,0,1-2-.91,7.89,7.89,0,0,1-2.92-3.37,7.77,7.77,0,0,1-.63-2.16,7.12,7.12,0,0,1-.08-1.12V9.65l.05-.55a10.09,10.09,0,0,1,4.35-7.35A9.86,9.86,0,0,1,119.84.12l1.1-.12H122a9.86,9.86,0,0,1,1.07.09l.53.06.53.11a12.49,12.49,0,0,1,7.15,4.35c.21.28.45.55.64.84l.56.89.46,1c.16.31.25.65.38,1a12.31,12.31,0,0,1,.68,4.06.24.24,0,0,1-.24.24.24.24,0,0,1-.23-.21Z"/><path class="cls-3" d="M155.33,7.1a12.5,12.5,0,0,1-10,11.82,12.18,12.18,0,0,1-4.22.15,9.84,9.84,0,0,1-4-1.56,10.06,10.06,0,0,1-3-3.1,9.82,9.82,0,0,1-1.37-4.11l0-.54V9.21a6.82,6.82,0,0,1,.06-1.1,7.87,7.87,0,0,1,3.48-5.54,7.59,7.59,0,0,1,2-.95,8,8,0,0,1,1.1-.26,7,7,0,0,1,1.12-.08,6.22,6.22,0,0,1,6.37,5.65,5.56,5.56,0,0,1-.3,2.37,5.12,5.12,0,0,1-1.4,2,4.76,4.76,0,0,1-2.16,1,4.32,4.32,0,0,1-2.38-.18,3.52,3.52,0,0,1-2.22-3.77.36.36,0,0,1,.71,0,2.69,2.69,0,0,0,2,2.43,3.12,3.12,0,0,0,1.57-.06,3.44,3.44,0,0,0,1.38-.78c1.61-1.44,1.21-4.32-.46-5.78a4.36,4.36,0,0,0-3.06-1.14,6.35,6.35,0,0,0-.87,0,8.23,8.23,0,0,0-.86.19,5.88,5.88,0,0,0-1.59.73A6.07,6.07,0,0,0,135,6.65a6.55,6.55,0,0,0-.52,3.49A8.41,8.41,0,0,0,138,16.29a8.46,8.46,0,0,0,3.38,1.43,11,11,0,0,0,3.76,0,11.73,11.73,0,0,0,6.58-3.62,12,12,0,0,0,3-7h0a.28.28,0,0,1,.31-.25A.28.28,0,0,1,155.33,7.1Z"/><path class="cls-4" d="M175.91,12.35a12.33,12.33,0,0,0-3.24-6.87A11.67,11.67,0,0,0,166.18,2a11.1,11.1,0,0,0-3.68-.05,8.52,8.52,0,0,0-3.31,1.36,8.18,8.18,0,0,0-3.56,6,6.54,6.54,0,0,0,.47,3.46,6.25,6.25,0,0,0,3.81,3.4,8.11,8.11,0,0,0,.85.21,6.67,6.67,0,0,0,.89.07,4.45,4.45,0,0,0,3.16-1.1c1.76-1.45,2.27-4.51.52-6.08a3.52,3.52,0,0,0-1.49-.82,3.13,3.13,0,0,0-1.69,0A2.68,2.68,0,0,0,160.28,11a.38.38,0,0,1-.76.05h0a3.54,3.54,0,0,1,2.31-3.6,4.53,4.53,0,0,1,4.31.88,4.81,4.81,0,0,1,1.34,1.86,5.08,5.08,0,0,1,.3,2.27,6.1,6.1,0,0,1-6.14,5.59,8.41,8.41,0,0,1-1.12-.06,8.3,8.3,0,0,1-1.1-.24,7.32,7.32,0,0,1-2-.91,7.83,7.83,0,0,1-2.92-3.37,7.44,7.44,0,0,1-.63-2.16,7.12,7.12,0,0,1-.08-1.12V9.65l0-.55a10.25,10.25,0,0,1,1.35-4.16,10.28,10.28,0,0,1,3-3.19A9.86,9.86,0,0,1,162.2.12L163.3,0h1.07a9.83,9.83,0,0,1,1.08.09l.53.06.53.11a12.49,12.49,0,0,1,7.15,4.35c.21.28.45.55.63.84l.57.89.46,1c.15.31.25.65.38,1a12.31,12.31,0,0,1,.68,4.06.24.24,0,0,1-.24.24.24.24,0,0,1-.23-.21Z"/><path class="cls-5" d="M197.21,7.1a12.51,12.51,0,0,1-10,11.82,12.19,12.19,0,0,1-4.22.15,9.88,9.88,0,0,1-4-1.56,10.06,10.06,0,0,1-3-3.1,9.82,9.82,0,0,1-1.37-4.11l0-.54V9.21a6.82,6.82,0,0,1,.06-1.1A7.73,7.73,0,0,1,175.29,6a7.86,7.86,0,0,1,2.87-3.38,7.59,7.59,0,0,1,2-.95,8,8,0,0,1,1.1-.26,7,7,0,0,1,1.12-.08,6.22,6.22,0,0,1,6.37,5.65,5.41,5.41,0,0,1-.3,2.37,5.12,5.12,0,0,1-1.4,2,4.76,4.76,0,0,1-2.16,1,4.32,4.32,0,0,1-2.38-.18,3.52,3.52,0,0,1-2.22-3.77.37.37,0,0,1,.42-.29.36.36,0,0,1,.29.33,2.69,2.69,0,0,0,2,2.43,3.11,3.11,0,0,0,1.57-.06A3.44,3.44,0,0,0,186,10c1.61-1.44,1.21-4.32-.45-5.78a4.4,4.4,0,0,0-3.07-1.14,6.35,6.35,0,0,0-.87,0,8.23,8.23,0,0,0-.86.19,5.88,5.88,0,0,0-1.59.73,6.07,6.07,0,0,0-2.27,2.62,6.65,6.65,0,0,0-.52,3.49,8.71,8.71,0,0,0,1.09,3.46,8.55,8.55,0,0,0,2.46,2.69,8.46,8.46,0,0,0,3.38,1.43,11,11,0,0,0,3.76,0,11.73,11.73,0,0,0,6.58-3.62,11.94,11.94,0,0,0,3-7h0a.27.27,0,0,1,.3-.25A.28.28,0,0,1,197.21,7.1Z"/><path class="cls-6" d="M217.79,12.35a12.33,12.33,0,0,0-3.24-6.87A11.67,11.67,0,0,0,208.06,2a11.1,11.1,0,0,0-3.68-.05,8.58,8.58,0,0,0-3.31,1.36,8.45,8.45,0,0,0-2.45,2.6,8.41,8.41,0,0,0-1.11,3.41,6.54,6.54,0,0,0,.47,3.46,6.08,6.08,0,0,0,2.23,2.64,6.22,6.22,0,0,0,1.58.76c.28.1.57.14.85.21a6.67,6.67,0,0,0,.89.07,4.49,4.49,0,0,0,3.17-1.1c1.75-1.45,2.27-4.51.51-6.08a3.52,3.52,0,0,0-1.49-.82,3.09,3.09,0,0,0-1.68,0A2.68,2.68,0,0,0,202.16,11a.38.38,0,0,1-.76.05h0a3.54,3.54,0,0,1,2.31-3.6,4.55,4.55,0,0,1,4.31.87,4.92,4.92,0,0,1,1.34,1.87,5.08,5.08,0,0,1,.3,2.27,6.1,6.1,0,0,1-6.14,5.59A8.41,8.41,0,0,1,202.4,18a8.15,8.15,0,0,1-1.09-.24,7.26,7.26,0,0,1-2.05-.91,7.89,7.89,0,0,1-2.92-3.37,7.77,7.77,0,0,1-.63-2.16,7.12,7.12,0,0,1-.08-1.12V9.65l0-.55A10.09,10.09,0,0,1,200,1.75,9.86,9.86,0,0,1,204.08.12l1.1-.12h1.07a9.83,9.83,0,0,1,1.08.09l.53.06.53.11a12.49,12.49,0,0,1,7.15,4.35c.21.28.45.55.64.84l.56.89.46,1c.15.31.25.65.38,1a12.31,12.31,0,0,1,.68,4.06.24.24,0,0,1-.24.24.24.24,0,0,1-.23-.21Z"/><path class="cls-7" d="M308.6,11l-90,.92a1.55,1.55,0,1,1,0-3.09h0l90,.92a.63.63,0,0,1,0,1.25Z"/><path class="cls-8" d="M.62,9.72l90-.92a1.55,1.55,0,1,1,0,3.09h0L.62,11a.63.63,0,0,1,0-1.25Z"/><path class="cls-9" d="M121.13,10.76a2,2,0,1,1-2-2A2,2,0,0,1,121.13,10.76Z"/><circle class="cls-10" cx="140.35" cy="8.69" r="2"/><path class="cls-11" d="M163.42,10.81a2,2,0,1,1-2-2A2,2,0,0,1,163.42,10.81Z"/><circle class="cls-12" cx="182.23" cy="8.64" r="2"/><path class="cls-13" d="M205.35,10.81a2,2,0,1,1-2-2A2,2,0,0,1,205.35,10.81Z"/><circle class="cls-14" cx="98.01" cy="8.59" r="2"/></g></g></svg>