<svg xmlns="http://www.w3.org/2000/svg" viewBox="0 0 89.17 97.51"><defs><style>.cls-1{fill:#fff;}</style></defs><g id="Layer_2" data-name="Layer 2"><g id="Text"><path class="cls-1" d="M69.9,73c1.93-2.18,4-4.24,5.74-6.6a33.84,33.84,0,0,0,6-16.27c.13-1.19-.67-2-1.72-1.78-.8.19-1.05.79-1.15,1.56A32.34,32.34,0,0,1,66,72.44a2.58,2.58,0,0,1-1.46.51Q46.3,73,28,73a2.6,2.6,0,0,1-1.47-.48A32.61,32.61,0,0,1,49,14c11.53,1,20.17,6.73,25.94,16.75a32.18,32.18,0,0,1,3.87,12.37,1.41,1.41,0,0,0,1.55,1.34,1.47,1.47,0,0,0,1.27-1.71c-.1-.89-.22-1.77-.38-2.64a35.53,35.53,0,0,0-48-26.63C11,22.18,3.59,50.26,18.65,68.73c1.4,1.72,3,3.27,4.39,4.76A13.36,13.36,0,0,0,22,75.75a15.44,15.44,0,0,0-.12,2.17,1.06,1.06,0,0,1-.5.74A3.58,3.58,0,0,0,19,82.25c0,2,0,4.07,0,6.1a.84.84,0,0,1-.73,1,3.12,3.12,0,0,0-2.13,2,4.66,4.66,0,0,0,2.35,6.15H74a3.75,3.75,0,0,0,2.55-4.27c0-.29,0-.57,0-.86a3.19,3.19,0,0,0-2.31-3,.85.85,0,0,1-.73-1c0-2.1,0-4.2,0-6.3a3.23,3.23,0,0,0-2-3.19,1.19,1.19,0,0,1-.85-1.41c.09-1.47,0-2.89-1.46-3.89A6.32,6.32,0,0,0,69.9,73Zm-43,2.88H66c1.83,0,1.84,0,1.8,1.8,0,.25,0,.49-.06.78H24.88c-.06-.07-.1-.09-.1-.12C24.46,75.89,24.51,75.83,26.91,75.83ZM72.25,92c.45,0,1.24.06,1.29.25a5.48,5.48,0,0,1,0,2.06c0,.15-.63.31-1,.31-5.3,0-10.61,0-15.92,0H51.51a1.47,1.47,0,0,0-.21,0H50.22a1.61,1.61,0,0,0-.31,0c-7.88,0-22.64,0-29.62,0-.45,0-1.24,0-1.29-.24a7.07,7.07,0,0,1-.08-2.06c0-.12.32-.28.51-.31a4.11,4.11,0,0,1,.86,0Q46.27,92,72.25,92Zm-1.59-9.2V89.1H21.88V85.48c0-1,0-2.09,0-3.14,0-.74.31-1.06,1-1,.15,0,.31,0,.47,0H69.16C70.62,81.32,70.66,81.36,70.66,82.82Z"/><path class="cls-1" d="M87.94,15.55a8.45,8.45,0,0,1-3.23-3.24,2.37,2.37,0,0,0-2-1.27h0a2.38,2.38,0,0,0-2.06,1.28,8.85,8.85,0,0,1-3.23,3.23,2.45,2.45,0,0,0-1.28,2.08,2.36,2.36,0,0,0,1.26,2,8.83,8.83,0,0,1,3.23,3.22,2.43,2.43,0,0,0,2.08,1.26h0a2.37,2.37,0,0,0,2-1.25A8.51,8.51,0,0,1,88,19.67a2.2,2.2,0,0,0,1.21-2.07A2.19,2.19,0,0,0,87.94,15.55Zm-5.25,4.82-2.77-2.72,2.74-2.74,2.78,2.73Z"/><path class="cls-1" d="M75,44.83c0,.63,0,1.05,0,1.46a1.41,1.41,0,0,1-2.81.16c-.11-1-.09-2.1-.22-3.13A25.44,25.44,0,0,0,60.15,24.46c-.16-.11-.33-.2-.48-.32a1.41,1.41,0,0,1-.44-1.93,1.36,1.36,0,0,1,2-.43,41.29,41.29,0,0,1,4.48,3.37A28.33,28.33,0,0,1,75,44.83Z"/><path class="cls-1" d="M13.4,71.75a12.85,12.85,0,0,1-2.46-2.48,2.31,2.31,0,0,0-1.82-1,2.3,2.3,0,0,0-1.82,1,12.84,12.84,0,0,1-2.47,2.47,2.2,2.2,0,0,0,0,3.71,15.15,15.15,0,0,1,2.41,2.39,3.39,3.39,0,0,0,2,1.25l.5-.36A13.06,13.06,0,0,0,11,77.82c.32-.3.63-.63.93-.95a12.34,12.34,0,0,1,1.48-1.41,2.36,2.36,0,0,0,1-1.86A2.3,2.3,0,0,0,13.4,71.75ZM9.08,75.43l-2-1.84,2-1.94,1.87,2Z"/><path class="cls-1" d="M71.24,3.41A10.6,10.6,0,0,1,68.9,1.07a2.17,2.17,0,0,0-3.74,0,10.83,10.83,0,0,1-2.33,2.35,2.36,2.36,0,0,0-1.1,1.9,2.39,2.39,0,0,0,1.11,1.9,11.56,11.56,0,0,1,2.28,2.27,2.18,2.18,0,0,0,3.81,0,12.24,12.24,0,0,1,2.28-2.27,2.39,2.39,0,0,0,1.11-1.91A2.39,2.39,0,0,0,71.24,3.41Zm-4.4,3.65L65.13,5.29,67,3.38l2,2Z"/><path class="cls-1" d="M5.08,57.6c1.54.09,2.15.52,2.18,1.41S6.7,60.4,5.18,60.56c-.41,1.75-.74,2.18-1.62,2.13s-1.23-.55-1.45-2.1C.47,60.33-.06,59.92,0,59s.6-1.26,2.11-1.39c.11-1,.15-2.16,1.54-2.13S5.08,56.56,5.08,57.6Z"/></g></g></svg>