<svg xmlns="http://www.w3.org/2000/svg" viewBox="0 0 99.77 91.06"><defs><style>.cls-1{fill:#fff;}</style></defs><g id="Layer_2" data-name="Layer 2"><g id="Text"><path class="cls-1" d="M90.36,41.54a2.56,2.56,0,0,0-.22-.39C87.35,37.15,80.9,28,78,24a16.32,16.32,0,0,0-8.6-6.08c-5.35-1.63-10.33-.53-15.09,2.11a5.3,5.3,0,0,0-2.82,6.05,1.09,1.09,0,0,1-.32.84,10.67,10.67,0,0,1-1.35,1,6.27,6.27,0,0,0-1-.7c-.7-.33-.79-.75-.66-1.53A5,5,0,0,0,46,20.39c-8.61-5.8-19.07-3.86-25,4.65Q10.79,39.49.69,53.94c-.89,1.26-.92,2-.1,2.63s1.61.3,2.51-1Q13.29,41,23.46,26.53A14.34,14.34,0,0,1,37,20.09,13.08,13.08,0,0,1,44.35,23a2.05,2.05,0,0,1,1,2.23,1.19,1.19,0,0,1-.24,0l-.55-.2a17,17,0,0,0-16.42,2.5,26.49,26.49,0,0,0-3.69,3.72,1.41,1.41,0,0,0,.17,2.21c.72.53,1.5.35,2.18-.51l.29-.39a14.73,14.73,0,0,1,20.33-2.77,2.35,2.35,0,0,1-2.11,4.15c-.37-.12-.71-.33-1.07-.47a10,10,0,0,0-9.82,1c-2.84,1.93-3.91,4.93-4.8,8a10.65,10.65,0,0,0-.1,5.49A11.9,11.9,0,0,0,36,56.17c3.64,1.85,7.3,3.67,10.95,5.53a2.38,2.38,0,0,1,1.41,2.8,2.54,2.54,0,0,1-2.67,1.81c-.39,0-.77-.07-1.16-.11-1.73-.22-8.16-1-11-1.36a2.09,2.09,0,0,0-.52-.1,14.66,14.66,0,0,0-13,5.21C14.71,76.05,9.6,82.23,4.46,88.39c-.92,1.09-.81,1.76.37,2.67h1c.44-.44.91-.84,1.3-1.3,5-6,10-12,15-17.92a10.74,10.74,0,0,1,5.8-3.73,27.61,27.61,0,0,1,4.82-.44h0C35,68,42,68.78,43.61,69c2.3.39,4.47.34,6.25-1.48A5.82,5.82,0,0,0,55,69.19l11.4-1.46a12.09,12.09,0,0,1,11.15,4q2.53,2.84,5,5.74c3.76,4.51,7.49,9,11.24,13.57h1.36c1-1.11,1-1.63.29-2.53C90.11,82.22,84.85,75.9,79.53,69.64A14.33,14.33,0,0,0,71.68,65c-2.93-.7-5.81-.17-8.71.19s-5.92.77-8.89,1.08a2.44,2.44,0,0,1-2.67-1.81,2.39,2.39,0,0,1,1.42-2.79c1-.5,1.92-1,2.87-1.45,3.09-1.58,6.33-2.93,9.24-4.79,7-4.47,7.17-13,2.16-19.35-2.88-3.68-7.6-4.44-12.11-2.45a2.42,2.42,0,0,1-3.33-.82,2.31,2.31,0,0,1,.8-3.16A14.64,14.64,0,0,1,63.16,27,14.39,14.39,0,0,1,73,32.92a1.47,1.47,0,1,0,2.38-1.69,17.55,17.55,0,0,0-21-6,2.11,2.11,0,0,1,1-2.47c6.94-4.1,15.68-3.82,20.93,3.87,2.37,3.46,8.06,11.45,10.86,15.42h0a5.7,5.7,0,0,0,.52.82l9,12.83c1,1.47,1.69,1.56,3,.4V55ZM56.09,36.36c4.43-2,8.57-.28,10.34,4.26a11.19,11.19,0,0,1,1,6.14,8.86,8.86,0,0,1-4.74,6.64c-3.53,1.85-7.12,3.6-10.67,5.41-.75.38-1.45.84-2.13,1.24-1.49-.79-2.94-1.58-4.41-2.32-2.74-1.4-5.5-2.76-8.25-4.16a9.07,9.07,0,0,1-4.54-11.45c.29-.82.59-1.65,1-2.44A7.06,7.06,0,0,1,43,36.1c2.5,1.13,4.74,1.16,6.88-.73.16.11.29.2.41.3A5.28,5.28,0,0,0,56.09,36.36Z"/><path class="cls-1" d="M32.65,2.93c.22.2.78.49,1,.94,1.24,2.42,2.41,4.88,3.58,7.33a1.46,1.46,0,0,1-.58,2.09,1.43,1.43,0,0,1-2-.78q-1.82-3.64-3.56-7.34A1.51,1.51,0,0,1,32.65,2.93Z"/><path class="cls-1" d="M69,4.12c-.19.56-.26.88-.39,1.16-1.14,2.37-2.28,4.73-3.44,7.09-.48,1-1.25,1.29-2,.9a1.4,1.4,0,0,1-.66-2q1.78-3.78,3.65-7.53A1.28,1.28,0,0,1,67.79,3C68.28,3.23,68.62,3.77,69,4.12Z"/><path class="cls-1" d="M48.4,5.19c0-1.16,0-2.33,0-3.49S49,0,49.87,0s1.44.64,1.45,1.71c0,2.36,0,4.73,0,7.09,0,1.06-.6,1.71-1.46,1.7s-1.43-.65-1.45-1.71S48.4,6.39,48.4,5.19Z"/><path class="cls-1" d="M21.79,17.09c-.36.4-.65.94-1.1,1.17A1.22,1.22,0,0,1,19,17.75c-.8-1.48-1.55-3-2.22-4.53a1.31,1.31,0,0,1,.66-1.74,1.22,1.22,0,0,1,1.74.31c.88,1.57,1.62,3.23,2.41,4.85a1,1,0,0,1,0,.29Z"/><path class="cls-1" d="M79.85,18.38c-1.31,0-2.06-1-1.64-1.94.65-1.52,1.38-3,2.16-4.45a1.3,1.3,0,0,1,1.85-.54,1.33,1.33,0,0,1,.72,1.8q-1,2.27-2.18,4.44C80.57,18.05,80,18.24,79.85,18.38Z"/></g></g></svg>