<svg xmlns="http://www.w3.org/2000/svg" viewBox="0 0 81.41 75.15"><defs><style>.cls-1{fill:#fff;}</style></defs><g id="Layer_2" data-name="Layer 2"><g id="Text"><path class="cls-1" d="M81.23,22.06a8.94,8.94,0,0,0-.48-1.38,7.45,7.45,0,0,0-7-4.6c-2.5,0-4.94,0-7.54,0H62.5V12.72c0-1.58,0-3.17,0-4.75a7.65,7.65,0,0,0-8-8H26.87a7.74,7.74,0,0,0-8,8v8.07H8a7.68,7.68,0,0,0-8,8C0,39.51,0,53.61,0,67.18a7.71,7.71,0,0,0,8,8H73.29c4.23,0,7.07-2.29,8-6.45a.67.67,0,0,1,.11-.24V22.7ZM21.67,6.68a4.93,4.93,0,0,1,4.92-4.1c2.64,0,5.32,0,7.91,0H54.69a5.11,5.11,0,0,1,5,3.55,1.69,1.69,0,0,1,.07.38s0,.1,0,.16l.06.37H21.62Zm-.13,3H59.9v6.39H21.54ZM78.85,67c0,3.53-2.11,5.63-5.66,5.63h-65c-3.54,0-5.65-2.11-5.65-5.64V39.19l1.93.57,3.11.94,6.75,2c8.4,2.56,17.08,5.2,25.63,7.77a3,3,0,0,0,1.59,0c9.78-2.94,19.72-6,29.33-8.87l6.73-2,.49-.14.32-.08.4-.11V67Zm0-34.39v3.93l-2,.62-4,1.22-3.15,1C60.49,42.07,51,45,41.67,47.77a3.68,3.68,0,0,1-1,.14,2.45,2.45,0,0,1-.74-.1c-10.61-3.2-21.39-6.47-31.82-9.64L3.59,36.79l-.53-.17-.49-.16V31.89c0-2.54,0-5.09,0-7.63,0-3.53,2.08-5.63,5.58-5.63H73.31c3.41,0,5.54,2.11,5.54,5.51Z"/><path class="cls-1" d="M48,27.3H33.39c-1.22,0-1.65.43-1.65,1.61,0,2.32,0,4.7,0,7.06,0,1.15.44,1.6,1.57,1.61h14.8c1.13,0,1.57-.46,1.57-1.61,0-2.45,0-4.9,0-7C49.68,27.7,49.27,27.3,48,27.3ZM47.06,35H34.36V29.89h12.7Z"/></g></g></svg>