<?xml version="1.0" encoding="utf-8"?>
<!-- Generator: Adobe Illustrator 16.0.0, SVG Export Plug-In . SVG Version: 6.00 Build 0)  -->
<!DOCTYPE svg PUBLIC "-//W3C//DTD SVG 1.1//EN" "http://www.w3.org/Graphics/SVG/1.1/DTD/svg11.dtd">
<svg version="1.1" id="Layer_1" xmlns="http://www.w3.org/2000/svg" xmlns:xlink="http://www.w3.org/1999/xlink" x="0px" y="0px"
	 width="184px" height="50px" viewBox="0 0 184 50" enable-background="new 0 0 184 50" xml:space="preserve">
<g>
	<g>
		<path fill-rule="evenodd" clip-rule="evenodd" fill="#C45354" d="M105.861,1.294c1.16,2.578,0.887,5.416,1.473,8.097
			c0.45,2.059,0.595,4.201,1.646,6.103c0.189,0.343,0.405,0.808-0.102,1.083c-0.382,0.208-0.637-0.15-0.915-0.355
			c-1.063-0.784-1.619-1.918-1.838-3.138c-0.601-3.359-1.073-6.741-1.621-10.109c-0.1-0.613-0.004-1.155,0.292-1.68
			C105.152,1.294,105.507,1.294,105.861,1.294z"/>
		<path fill-rule="evenodd" clip-rule="evenodd" fill="#C45354" d="M107.627,20.493c-0.418,3.131-0.771,6.107-0.394,9.082
			c0.533,4.209,5.29,7.348,9.097,6.183c3.068-0.938,4.483-3.972,4.862-7.362c0.253-2.258-1.831-4.576-4.724-5.803
			c-2.231-0.945-4.32-0.912-6.382,0.419c-0.363,0.235-0.842,0.916-1.293,0.104c-0.314-0.566-0.536-1.145,0.058-1.77
			c1.782-1.875,4.092-1.767,6.282-1.476c3.732,0.494,7.858,4.341,8.128,8.107c0.396,5.508-3.387,11.225-9.924,9.973
			c-6.652-1.273-9.868-6.707-7.967-13.217c0.212-0.725,0.246-1.503,0.35-2.258C105.894,21.22,106.02,21.069,107.627,20.493z"/>
		<path fill-rule="evenodd" clip-rule="evenodd" fill="#3F3E3E" d="M147.051,27.736c1.904,2.444,3.41,5.124,5.683,7.323
			c-2.688,0.469-2.751,0.44-4.182-1.58c-1.024-1.445-2.059-2.885-3.085-4.329c-0.348-0.489-0.718-1.06-1.396-0.852
			c-0.705,0.217-0.372,0.919-0.358,1.382c0.046,1.59,0.184,3.178,0.287,4.768c0.017,0.264,0.284,0.695-0.097,0.746
			c-0.81,0.105-1.648,0.128-2.459,0.036c-0.549-0.063-0.196-0.523-0.165-0.841c0.423-4.299,0.395-8.604,0.032-12.901
			c-0.066-0.789-0.183-1.147,0.809-1.137c1.471,0.016,2.942-0.185,4.415-0.201c1.524-0.017,3.108,0.172,3.642,1.882
			c0.531,1.703,0.059,3.281-1.375,4.455C148.263,26.929,147.667,27.3,147.051,27.736z M143.783,24.418
			c0.352,0.729-1.075,2.3,0.721,2.702c1.418,0.317,2.669-0.413,3.235-1.869c0.254-0.654,0.267-1.38,0.146-2.092
			c-0.285-1.69-1.583-1.898-2.923-1.926c-1.548-0.03-1.068,1.211-1.174,2.059C143.754,23.583,143.783,23.882,143.783,24.418z"/>
		<path fill-rule="evenodd" clip-rule="evenodd" fill="#3F3E3E" d="M134.342,32.175c0.705-0.537,0.649-1.354,0.706-2.094
			c0.209-2.705,0.301-5.436-0.062-8.115c-0.193-1.431,0.136-1.775,1.434-1.599c0.4,0.055,0.813,0.008,1.258,0.008
			c-0.384,5.008-0.43,9.899,0.023,14.883c-0.95-0.076-2.014,0.471-2.774-0.727c-0.318-0.498-0.729,0.01-1.056,0.199
			c-1.05,0.606-2.173,0.834-3.381,0.797c-3.098-0.095-4.524-1.434-4.63-4.564c-0.085-2.531-0.046-5.067-0.062-7.602
			c-0.13-0.852,0.09-1.75-0.331-2.564c-0.052-0.417,0.315-0.394,0.542-0.518c0.871,0.087,1.744,0.173,2.616,0.26
			c-0.87,3.201-0.575,6.449-0.387,9.693c0.012,0.541,0.023,1.08,0.035,1.621c0.945,2.134,1.986,2.604,4.509,2.033
			C133.66,33.642,134.263,33.146,134.342,32.175z"/>
		<path fill-rule="evenodd" clip-rule="evenodd" fill="#3F3E3E" d="M54.729,35.138c-0.945,0.286-1.878,0.141-2.895,0.107
			c0.471-4.703,0.548-9.375,0.034-14.037c-0.069-0.623-0.02-0.856,0.625-0.835c0.699,0.024,1.4,0.006,2.271,0.006
			c-0.479,1.848-0.299,3.587-0.361,5.319c-0.029,0.795,0.134,1.186,1.048,1.141c1.473-0.072,2.954-0.088,4.424,0.003
			c1.045,0.064,1.141-0.444,1.132-1.267c-0.019-1.689-0.01-3.377-0.438-5.07c0.987-0.221,1.914-0.145,2.885-0.059
			c-0.287,4.761-0.512,9.49,0.087,14.208c0.087,0.686-0.333,0.627-0.737,0.634c-0.703,0.013-1.406,0.003-2.245,0.003
			c0.511-2.154,0.41-4.246,0.451-6.332c0.016-0.834-0.247-1.226-1.104-1.113c-0.059,0.008-0.118,0.003-0.177,0
			c-5.643-0.217-5.735-0.125-5.284,5.529C54.488,33.956,54.627,34.528,54.729,35.138z"/>
		<path fill-rule="evenodd" clip-rule="evenodd" fill="#3F3E3E" d="M164.437,23.782c-1.169-2.104-2.62-2.859-4.665-2.41
			c-2.151,0.474-3.32,1.824-3.846,3.896c-0.375,1.477-0.311,2.927,0.081,4.366c0.887,3.253,4.315,4.865,7.435,3.549
			c0.513-0.216,0.9-0.79,1.709-0.575c-0.592,1.611-1.806,2.391-3.325,2.742c-5.188,1.201-9.274-2.884-8.593-8.596
			c0.741-6.21,5.881-7.282,10.663-6.463c0.512,0.087,0.683,0.388,0.66,0.863C164.521,21.906,164.487,22.658,164.437,23.782z"/>
		<path fill-rule="evenodd" clip-rule="evenodd" fill="#3F3E3E" d="M83.727,23.424c-1.172-2.033-2.868-2.567-5-1.935
			c-1.934,0.573-3.208,2.173-3.41,4.471c-0.088,0.992-0.104,2.014,0.026,2.997c0.494,3.719,4.337,5.753,7.731,4.159
			c0.449-0.211,0.77-0.766,1.521-0.543c-0.409,1.459-1.504,2.155-2.766,2.624c-2.479,0.922-5.538,0.177-7.256-1.845
			c-2.354-2.77-2.434-5.955-1.158-9.141c1.223-3.051,3.834-4.126,6.972-4.129c0.413,0,0.826-0.001,1.238,0.022
			C84.379,20.264,84.557,20.533,83.727,23.424z"/>
		<path fill-rule="evenodd" clip-rule="evenodd" fill="#3F3E3E" d="M48.834,32.335c-0.817,3.389-5.914,3.813-8.31,2.432
			c-2.877-1.66-4.276-5.318-3.393-9.143c0.739-3.201,3.189-5.285,6.529-5.52c0.705-0.049,1.43-0.094,2.124,0.004
			c2.82,0.398,2.759-0.446,2.37,3.268c-0.787-0.59-1.2-1.488-2.099-1.842c-2.1-0.826-4.742,0.072-5.781,2.138
			c-1.186,2.356-1.183,4.808-0.04,7.165c1.216,2.51,4.21,3.488,6.825,2.363C47.576,32.978,48.071,32.709,48.834,32.335z"/>
		<path fill-rule="evenodd" clip-rule="evenodd" fill="#3F3E3E" d="M97.015,21.852c-1.209,1.248-1.262,2.33,0.049,3.38
			c1.046,0.838,2.257,1.473,3.409,2.174c1.739,1.059,2.632,2.542,2.149,4.59c-0.452,1.924-1.878,2.897-3.697,3.377
			c-1.165,0.307-2.334,0.181-3.495-0.034c-2.299-0.425-2.382-0.552-2.04-3.215c1.146,1.242,2.328,2.247,4.048,2.194
			c0.731-0.021,1.425-0.154,1.96-0.652c1.15-1.067,1.365-2.281,0.419-3.61c-0.506-0.774-1.263-1.197-2.109-1.493
			c-0.712-0.508-1.45-0.98-2.129-1.529c-2.273-1.834-2.431-3.593-0.564-5.893c1.517-1.346,3.399-0.965,5.173-1.095
			c0.926,0.146,2.203-0.273,2.199,1.367c-0.161,0.648-0.06,1.52-1.187,0.604C99.933,20.986,98.45,20.864,97.015,21.852z"/>
		<path fill-rule="evenodd" clip-rule="evenodd" fill="#3F3E3E" d="M13.438,32.239c1.264,1.26,2.554,2.209,4.385,2.062
			c1.155-0.093,2.074-0.587,2.483-1.677c0.429-1.143,0.179-2.227-0.781-3.043c-0.443-0.379-0.968-0.661-1.455-0.988
			c-0.829-0.557-1.681-1.084-2.481-1.68c-1.409-1.049-2.098-2.453-1.512-4.172c0.572-1.682,1.991-2.419,3.67-2.625
			c0.813-0.1,1.654,0.032,2.473-0.047c1.741-0.168,2.608,0.389,1.984,2.414c-0.862-0.484-1.66-1.215-2.719-1.236
			c-1.287-0.027-2.554,0.14-3.134,1.486c-0.6,1.394,0.394,2.227,1.357,2.921c0.95,0.687,2.018,1.208,3.005,1.845
			c1.556,1.004,2.535,2.375,2.097,4.297c-0.446,1.957-1.799,3.125-3.745,3.568c-1.656,0.377-3.276,0.119-4.867-0.388
			C12.613,34.472,13.669,33.171,13.438,32.239z"/>
		<path fill-rule="evenodd" clip-rule="evenodd" fill="#3F3E3E" d="M2.346,35.323c0.424-4.969,0.639-9.934-0.094-14.895
			c1.694-0.098,3.387-0.225,5.082-0.285c1.719-0.061,3.375,0.252,4.163,1.986c0.801,1.762,0.66,3.582-0.551,5.151
			c-1.153,1.493-2.754,1.879-4.566,1.478c-0.285-0.063-0.573-0.111-0.859-0.166c0.117-0.592,0.648-0.383,0.995-0.484
			c2.273-0.666,3.496-2.865,2.755-5.076c-0.523-1.561-1.801-1.867-3.243-1.813c-1.534,0.06-1.102,1.325-1.143,2.121
			c-0.091,1.752,0.014,3.514,0.039,5.271c-0.107,1.745-0.248,3.511,0.154,5.216c0.315,1.336-0.146,1.631-1.338,1.479
			C3.284,35.247,2.811,35.313,2.346,35.323z"/>
		<path fill-rule="evenodd" clip-rule="evenodd" fill="#3F3E3E" d="M175.812,27.097c-1.247,1.037-2.604,0.997-3.926,0.961
			c-0.995-0.027-1.42,0.339-1.304,1.338c0.041,0.35-0.002,0.707,0.008,1.061c0.034,1.219-0.429,2.988,0.501,3.494
			c1.392,0.756,3.205,0.338,4.765-0.313c0.416-0.174,0.79-0.448,1.186-0.679c0.204,2.129,0.037,2.358-2.001,2.381
			c-2.005,0.021-4.011-0.056-6.015-0.031c-0.872,0.01-0.938-0.178-0.854-1.097c0.384-4.229,0.379-8.483,0.002-12.708
			c-0.1-1.12,0.177-1.131,0.998-1.137c1.706-0.012,3.418-0.01,5.117-0.144c1.578-0.125,2.213,0.432,1.794,2.129
			c-1.327-1.202-2.932-0.825-4.463-0.884c-0.576-0.022-0.881,0.242-0.895,0.826c-0.001,0.059,0.001,0.119-0.01,0.178
			c-0.737,4.186-0.537,4.418,3.717,4.32C174.829,26.782,175.243,26.667,175.812,27.097z"/>
		<path fill-rule="evenodd" clip-rule="evenodd" fill="#3F3E3E" d="M24.338,20.516c1.855-0.483,3.184-0.059,3.864,1.903
			c0.572,1.648,1.299,3.244,2.123,5.27c1.015-2.449,2.869-4.166,2.86-6.731c-0.002-0.563,0.249-0.564,0.602-0.573
			c0.647-0.015,1.296-0.004,2.122-0.004c-0.709,1.732-1.777,3.105-2.748,4.51c-1.978,2.861-2.751,5.952-2.149,9.386
			c0.056,0.316,0.342,0.852-0.091,0.924c-0.8,0.132-1.644,0.092-2.455,0.007c-0.383-0.04-0.218-0.452-0.151-0.729
			c1.162-4.837-0.672-8.901-3.282-12.771C24.782,21.335,24.336,21.069,24.338,20.516z"/>
		<path fill-rule="evenodd" clip-rule="evenodd" fill="#3F3E3E" d="M67.009,35.294c0.532-4.76,0.512-9.389,0.117-14.021
			c-0.023-0.282-0.489-0.753,0.111-0.831c0.811-0.104,1.66-0.116,2.464,0.016c0.518,0.084,0.098,0.57,0.073,0.872
			c-0.341,4.18-0.347,8.371-0.004,12.539c0.103,1.238-0.024,1.564-1.199,1.436C68.056,35.247,67.529,35.294,67.009,35.294z"/>
		<path fill-rule="evenodd" clip-rule="evenodd" fill="#C45354" d="M116.731,16.726c-0.725-0.164-1.16-0.564-0.747-1.257
			c1.714-2.874,3.316-5.824,5.48-8.404c0.48-0.571,0.991-0.466,1.546-0.07c0.665,0.475,0.479,0.896,0.078,1.455
			c-1.714,2.388-3.059,5.031-5.006,7.258C117.702,16.143,117.368,16.664,116.731,16.726z"/>
		<path fill-rule="evenodd" clip-rule="evenodd" fill="#C45354" d="M100.187,20.044c-1.773,0.13-3.656-0.25-5.173,1.095
			c-1.293-1.064-2.946-1.449-4.344-2.314c-0.497-0.308-1.044-0.578-1.447-0.985c-0.506-0.51-0.542-1.209-0.127-1.794
			c0.381-0.536,0.971-0.639,1.581-0.337c1.32,0.653,2.798,1.114,3.915,2.019C96.271,19.088,98.086,19.842,100.187,20.044z"/>
		<path fill-rule="evenodd" clip-rule="evenodd" fill="#C45354" d="M127.715,45.497c0.025,0.525-0.104,0.837-0.472,1.005
			c-0.513,0.234-0.804-0.108-0.984-0.479c-1.026-2.093-2.682-3.726-4.036-5.577c-0.313-0.43-1.063-0.838-0.377-1.466
			c0.588-0.538,1.288-0.265,1.762,0.19c1.758,1.691,3.241,3.588,4.022,5.948C127.685,45.284,127.706,45.46,127.715,45.497z"/>
		<path fill-rule="evenodd" clip-rule="evenodd" fill="#C45354" d="M128.626,20.54c-0.872-0.087-1.745-0.173-2.616-0.26
			c1.646-1.509,3.427-2.842,5.254-4.121c0.877-0.613,1.814-0.761,2.842-0.639c0.361,0.042,0.775,0.054,0.85,0.455
			c0.078,0.422-0.355,0.559-0.657,0.719C132.265,17.766,130.537,19.289,128.626,20.54z"/>
		<path fill-rule="evenodd" clip-rule="evenodd" fill="#C45354" d="M114.317,42.518c-0.295,1.755-0.62,3.653-1.252,5.483
			c-0.115,0.336-0.271,0.711-0.684,0.704c-0.489-0.009-0.74-0.419-0.757-0.831c-0.097-2.359,0.326-4.651,1.076-6.877
			c0.109-0.324,0.472-0.756,0.97-0.504C114.47,40.896,114.251,41.684,114.317,42.518z"/>
		<path fill-rule="evenodd" clip-rule="evenodd" fill="#C45354" d="M134.342,32.175c-0.079,0.972-0.682,1.467-1.559,1.713
			c-1.503-0.678-3.006-1.355-4.509-2.033c-0.012-0.541-0.023-1.08-0.035-1.621C130.387,30.524,132.338,31.431,134.342,32.175z"/>
		<path fill-rule="evenodd" clip-rule="evenodd" fill="#C45354" d="M97.707,28.562c0.847,0.296,1.604,0.719,2.109,1.493
			c-1.994,0.149-3.989,0.294-5.982,0.456c-0.417,0.033-0.929,0.14-1.048-0.35c-0.117-0.482,0.391-0.672,0.77-0.815
			C94.892,28.841,96.309,28.745,97.707,28.562z"/>
		<path fill-rule="evenodd" clip-rule="evenodd" fill="#C45354" d="M97.015,21.852c1.436-0.987,2.918-0.865,4.185,0.163
			c1.127,0.916,1.025,0.045,1.187-0.604c0.541,0.297,1.409,0.529,1.118,1.277c-0.262,0.676-1.105,0.77-1.839,0.596
			C100.084,22.909,98.458,22.674,97.015,21.852z"/>
		<path fill-rule="evenodd" clip-rule="evenodd" fill="#C45354" d="M102.291,40.194c-0.607-0.037-0.748-0.342-0.449-0.807
			c0.883-1.372,2.363-1.895,3.762-2.468c0.522-0.215,0.768,0.315,0.434,0.734C105.057,38.884,103.631,39.493,102.291,40.194z"/>
		<path fill-rule="evenodd" clip-rule="evenodd" fill="#C45354" d="M125.468,20.798c0.421,0.814,0.201,1.713,0.331,2.564
			c-0.611,0.093-0.889,1.428-1.706,0.569c-0.65-0.685,0.111-1.302,0.412-1.882C124.744,21.59,125.141,21.212,125.468,20.798z"/>
	</g>
	<g>
		<path fill-rule="evenodd" clip-rule="evenodd" fill="#010101" d="M181.748,22.124c0,0.066,0,0.133,0,0.199
			c-0.011,0.006-0.005,0.016-0.006,0.023c-0.006,0.082-0.016,0.164-0.032,0.244c-0.09,0.439-0.305,0.807-0.648,1.092
			c-0.435,0.36-0.936,0.501-1.494,0.427c-0.31-0.04-0.591-0.156-0.844-0.339c-0.586-0.424-0.882-1.121-0.771-1.848
			c0.072-0.465,0.289-0.854,0.648-1.158c0.436-0.368,0.94-0.511,1.505-0.437c0.342,0.045,0.649,0.179,0.916,0.396
			c0.424,0.344,0.663,0.789,0.716,1.333C181.741,22.079,181.736,22.103,181.748,22.124z M179.838,23.749
			c0.836,0,1.515-0.674,1.527-1.502c0.014-0.856-0.665-1.543-1.496-1.559c-0.881-0.017-1.585,0.704-1.563,1.572
			C178.325,23.074,178.995,23.749,179.838,23.749z"/>
		<path fill-rule="evenodd" clip-rule="evenodd" fill="#010101" d="M180.745,23.23c-0.013,0-0.021,0-0.027,0
			c-0.156,0-0.313-0.001-0.47,0c-0.019,0.001-0.027-0.005-0.037-0.021c-0.146-0.268-0.293-0.534-0.438-0.802
			c-0.014-0.025-0.028-0.037-0.058-0.035c-0.043,0.004-0.087,0.001-0.13,0.002c-0.04,0-0.036-0.006-0.036,0.034
			c0,0.263,0,0.526,0,0.79c0,0.038,0.003,0.032-0.033,0.032c-0.128,0-0.256-0.001-0.384,0c-0.019,0.001-0.024-0.003-0.024-0.023
			c0-0.667,0-1.333,0-1.999c0-0.02,0.005-0.025,0.025-0.025c0.258,0,0.515-0.002,0.771,0c0.149,0.002,0.298,0.016,0.441,0.064
			c0.22,0.075,0.341,0.229,0.363,0.459c0.009,0.092,0.008,0.183-0.014,0.273c-0.043,0.184-0.162,0.293-0.344,0.338
			c-0.033,0.008-0.066,0.016-0.101,0.017c-0.02,0.001-0.024,0.006-0.013,0.024c0.118,0.203,0.235,0.405,0.353,0.607
			C180.642,23.053,180.691,23.14,180.745,23.23z M179.547,21.778c0,0.072,0.001,0.144,0,0.216c-0.001,0.022,0.005,0.03,0.028,0.03
			c0.124-0.002,0.248-0.001,0.372-0.001c0.034-0.001,0.069-0.001,0.104-0.006c0.112-0.015,0.173-0.07,0.191-0.179
			c0.003-0.014,0.005-0.028,0.006-0.043c0.012-0.128-0.044-0.207-0.167-0.241c-0.046-0.013-0.094-0.02-0.141-0.021
			c-0.123-0.001-0.246,0-0.369-0.002c-0.021,0-0.024,0.008-0.024,0.027C179.548,21.632,179.547,21.705,179.547,21.778z"/>
	</g>
</g>
</svg>
