<svg xmlns="http://www.w3.org/2000/svg" xmlns:xlink="http://www.w3.org/1999/xlink" viewBox="0 0 1884.77 1045.96"><defs><style>.cls-1{fill:url(#New_Gradient_Swatch_2);}.cls-2{fill:url(#New_Gradient_Swatch_2-3);}.cls-3{fill:url(#New_Gradient_Swatch_2-4);}.cls-4{fill:url(#New_Gradient_Swatch_2-5);}.cls-5{fill:url(#New_Gradient_Swatch_2-6);}.cls-6{fill:url(#New_Gradient_Swatch_2-7);}.cls-7{fill:url(#New_Gradient_Swatch_2-8);}.cls-8{fill:url(#New_Gradient_Swatch_2-9);}.cls-9{fill:url(#New_Gradient_Swatch_2-10);}.cls-10{fill:url(#New_Gradient_Swatch_2-11);}.cls-11{fill:url(#New_Gradient_Swatch_2-12);}.cls-12{fill:url(#New_Gradient_Swatch_2-13);}.cls-13{fill:url(#New_Gradient_Swatch_2-14);}.cls-14{fill:url(#New_Gradient_Swatch_2-15);}.cls-15{fill:url(#New_Gradient_Swatch_2-16);}.cls-16{fill:url(#New_Gradient_Swatch_2-17);}.cls-17{fill:url(#New_Gradient_Swatch_2-18);}.cls-18{fill:url(#New_Gradient_Swatch_2-19);}.cls-19{fill:url(#New_Gradient_Swatch_2-20);}.cls-20{fill:url(#New_Gradient_Swatch_2-21);}.cls-21{fill:url(#New_Gradient_Swatch_2-22);}.cls-22{fill:url(#New_Gradient_Swatch_2-23);}.cls-23{fill:url(#New_Gradient_Swatch_2-24);}.cls-24{fill:url(#New_Gradient_Swatch_2-25);}.cls-25{fill:url(#New_Gradient_Swatch_2-26);}.cls-26{fill:url(#New_Gradient_Swatch_2-27);}.cls-27{fill:url(#New_Gradient_Swatch_2-28);}.cls-28{fill:url(#New_Gradient_Swatch_2-29);}.cls-29{fill:url(#New_Gradient_Swatch_2-30);}.cls-30{fill:#b49a61;fill-rule:evenodd;}</style><linearGradient id="New_Gradient_Swatch_2" x1="-59.82" y1="522.98" x2="1964.62" y2="522.98" gradientUnits="userSpaceOnUse"><stop offset="0" stop-color="#7b6241"/><stop offset="0.05" stop-color="#836b49"/><stop offset="0.12" stop-color="#97825d"/><stop offset="0.16" stop-color="#a38f67"/><stop offset="0.22" stop-color="#bdad7f"/><stop offset="0.29" stop-color="#d0c18c"/><stop offset="0.34" stop-color="#e3d69a"/><stop offset="0.45" stop-color="#ded096"/><stop offset="0.63" stop-color="#c7b782"/><stop offset="0.73" stop-color="#ac986d"/><stop offset="0.87" stop-color="#89764d"/><stop offset="1" stop-color="#7d643e"/></linearGradient><linearGradient id="New_Gradient_Swatch_2-3" x1="-59.82" y1="998.57" x2="1964.62" y2="998.57" xlink:href="#New_Gradient_Swatch_2"/><linearGradient id="New_Gradient_Swatch_2-4" x1="-59.82" y1="993.24" x2="1964.62" y2="993.24" xlink:href="#New_Gradient_Swatch_2"/><linearGradient id="New_Gradient_Swatch_2-5" x1="-59.82" y1="1005.03" x2="1964.62" y2="1005.03" xlink:href="#New_Gradient_Swatch_2"/><linearGradient id="New_Gradient_Swatch_2-6" x1="-59.82" y1="920.87" x2="1964.62" y2="920.87" xlink:href="#New_Gradient_Swatch_2"/><linearGradient id="New_Gradient_Swatch_2-7" x1="-59.82" y1="972.37" x2="1964.62" y2="972.37" xlink:href="#New_Gradient_Swatch_2"/><linearGradient id="New_Gradient_Swatch_2-8" x1="-59.82" y1="886.43" x2="1964.62" y2="886.43" xlink:href="#New_Gradient_Swatch_2"/><linearGradient id="New_Gradient_Swatch_2-9" x1="-59.82" y1="1006.98" x2="1964.62" y2="1006.98" xlink:href="#New_Gradient_Swatch_2"/><linearGradient id="New_Gradient_Swatch_2-10" x1="-59.82" y1="125.17" x2="1964.62" y2="125.17" xlink:href="#New_Gradient_Swatch_2"/><linearGradient id="New_Gradient_Swatch_2-11" x1="-59.82" y1="73.67" x2="1964.62" y2="73.67" xlink:href="#New_Gradient_Swatch_2"/><linearGradient id="New_Gradient_Swatch_2-12" x1="-59.82" y1="159.61" x2="1964.62" y2="159.61" xlink:href="#New_Gradient_Swatch_2"/><linearGradient id="New_Gradient_Swatch_2-13" x1="-59.82" y1="47.47" x2="1964.62" y2="47.47" xlink:href="#New_Gradient_Swatch_2"/><linearGradient id="New_Gradient_Swatch_2-14" x1="-59.82" y1="52.8" x2="1964.62" y2="52.8" xlink:href="#New_Gradient_Swatch_2"/><linearGradient id="New_Gradient_Swatch_2-15" x1="-59.82" y1="41" x2="1964.62" y2="41" xlink:href="#New_Gradient_Swatch_2"/><linearGradient id="New_Gradient_Swatch_2-16" x1="-59.82" y1="39.06" x2="1964.62" y2="39.06" xlink:href="#New_Gradient_Swatch_2"/><linearGradient id="New_Gradient_Swatch_2-17" x1="-59.82" y1="125.25" x2="1964.62" y2="125.25" xlink:href="#New_Gradient_Swatch_2"/><linearGradient id="New_Gradient_Swatch_2-18" x1="-59.82" y1="73.75" x2="1964.62" y2="73.75" xlink:href="#New_Gradient_Swatch_2"/><linearGradient id="New_Gradient_Swatch_2-19" x1="-59.82" y1="159.68" x2="1964.62" y2="159.68" xlink:href="#New_Gradient_Swatch_2"/><linearGradient id="New_Gradient_Swatch_2-20" x1="-59.84" y1="47.55" x2="1964.59" y2="47.55" xlink:href="#New_Gradient_Swatch_2"/><linearGradient id="New_Gradient_Swatch_2-21" x1="-59.82" y1="52.88" x2="1964.62" y2="52.88" xlink:href="#New_Gradient_Swatch_2"/><linearGradient id="New_Gradient_Swatch_2-22" x1="-59.82" y1="41.08" x2="1964.62" y2="41.08" xlink:href="#New_Gradient_Swatch_2"/><linearGradient id="New_Gradient_Swatch_2-23" x1="-59.82" y1="39.14" x2="1964.62" y2="39.14" xlink:href="#New_Gradient_Swatch_2"/><linearGradient id="New_Gradient_Swatch_2-24" x1="-59.82" y1="998.48" x2="1964.62" y2="998.48" xlink:href="#New_Gradient_Swatch_2"/><linearGradient id="New_Gradient_Swatch_2-25" x1="-59.82" y1="993.16" x2="1964.62" y2="993.16" xlink:href="#New_Gradient_Swatch_2"/><linearGradient id="New_Gradient_Swatch_2-26" x1="-59.82" y1="1004.95" x2="1964.62" y2="1004.95" xlink:href="#New_Gradient_Swatch_2"/><linearGradient id="New_Gradient_Swatch_2-27" x1="-59.82" y1="920.79" x2="1964.62" y2="920.79" xlink:href="#New_Gradient_Swatch_2"/><linearGradient id="New_Gradient_Swatch_2-28" x1="-59.82" y1="972.29" x2="1964.62" y2="972.29" xlink:href="#New_Gradient_Swatch_2"/><linearGradient id="New_Gradient_Swatch_2-29" x1="-59.82" y1="886.35" x2="1964.62" y2="886.35" xlink:href="#New_Gradient_Swatch_2"/><linearGradient id="New_Gradient_Swatch_2-30" x1="-59.82" y1="1006.89" x2="1964.62" y2="1006.89" xlink:href="#New_Gradient_Swatch_2"/></defs><g id="Layer_2" data-name="Layer 2"><g id="Text"><path class="cls-1" d="M1883.77,1046H1a1,1,0,0,1-1-1V1A1,1,0,0,1,1,0H1883.77a1,1,0,0,1,1,1V1045A1,1,0,0,1,1883.77,1046ZM2,1044H1882.77V2H2Z"/><path class="cls-1" d="M1830.78,1025.3H54a1,1,0,0,1-1-.86c-3.55-25.57-27.78-24.3-28.81-24.23a1,1,0,0,1-.75-.27,1,1,0,0,1-.31-.73V693.6c0-37.39,11.77-45.49,14.86-47V609.54a1,1,0,0,1,1-1c35.86,0,65-38.39,65-85.57s-29.18-85.55-65-85.55a1,1,0,0,1-1-1V399.33c-3.09-1.48-14.86-9.58-14.86-47V46.75a1,1,0,0,1,.31-.73,1,1,0,0,1,.75-.27c1,.07,25.27,1.3,28.81-24.23a1,1,0,0,1,1-.86H1830.78a1,1,0,0,1,1,.86c3.54,25.52,27.78,24.29,28.81,24.23a1.05,1.05,0,0,1,.75.27,1,1,0,0,1,.31.73V352.36c0,37.39-11.77,45.49-14.86,47v37.09a1,1,0,0,1-1,1c-35.87,0-65,38.38-65,85.55s29.18,85.57,65,85.57a1,1,0,0,1,1,1v37.09c3.09,1.48,14.86,9.58,14.86,47V999.21a1,1,0,0,1-.31.73,1.05,1.05,0,0,1-.75.27c-1-.07-25.27-1.3-28.81,24.23A1,1,0,0,1,1830.78,1025.3Zm-1775.93-2H1829.91c3.75-23.42,24.74-25,29.73-25.11V693.6c0-40.36-14-45.31-14.16-45.35a1,1,0,0,1-.7-1V610.53c-36.51-.7-66-39.71-66-87.56s29.54-86.84,66-87.54V398.66a1,1,0,0,1,.71-1c.13,0,14.15-5,14.15-45.34V47.76c-5,0-26-1.68-29.73-25.1H54.85c-3.74,23.42-24.73,25.05-29.72,25.1v304.6c0,40.35,14,45.3,14.15,45.35a1,1,0,0,1,.71,1v36.77c36.51.7,66,39.7,66,87.54S76.5,609.83,40,610.53v36.76a1,1,0,0,1-.72,1c-.13,0-14.14,5-14.14,45.35V998.19C30.12,998.25,51.11,999.88,54.85,1023.3Z"/><path class="cls-2" d="M1776,1009.29a8.47,8.47,0,0,1-3.33-.67,6.85,6.85,0,0,1-4.25-6.7,5.17,5.17,0,0,1,3-5,5.69,5.69,0,0,1,5.79.71,3.22,3.22,0,0,1,1.08,3.4,1,1,0,1,1-1.93-.53,1.21,1.21,0,0,0-.45-1.35,3.69,3.69,0,0,0-3.67-.4,3.28,3.28,0,0,0-1.78,3.22,4.87,4.87,0,0,0,3,4.84,6.35,6.35,0,0,0,6.71-1c1.61-1.57,2.87-5.17,2-8.74-.51-2.25-2.07-5.25-6.53-6.73-5.35-1.79-12.31,2-20.68,11.18-.35.39-.61.68-.78.85l-.08.08c-5.62,5.63-11.15,7.57-16.44,5.76-4.1-1.39-6.66-4-6.84-6.92a4.85,4.85,0,0,1,2.7-4.71c3.39-1.65,5.88.33,7.09,2.74a3.71,3.71,0,0,1-.81,3.91,1,1,0,0,1-1.5-1.32c.22-.26.8-1.12.52-1.69-.74-1.47-2.1-3-4.42-1.85a2.85,2.85,0,0,0-1.58,2.79c.13,2.1,2.18,4,5.48,5.16,4.52,1.53,9.35-.24,14.38-5.28l.08-.08c.16-.16.4-.43.72-.78,3.34-3.67,13.48-14.84,22.79-11.74a11.22,11.22,0,0,1,7.85,8.18c1,4.33-.55,8.62-2.6,10.62A8.05,8.05,0,0,1,1776,1009.29Z"/><path class="cls-3" d="M1801.69,1008.49a13.27,13.27,0,0,1-9.7-4.28,14.26,14.26,0,0,1-3.85-12.3c.79-3.94,3.93-7.93,8.41-10.69a20.26,20.26,0,0,1,15.91-2.59c10.89,3,15.28,12.09,17.15,16l.08.16a9.8,9.8,0,0,1-.78,9.17,4,4,0,0,1-3.62,2,6.27,6.27,0,0,1-4.45-2,4.62,4.62,0,0,1-.89-3.58,2.72,2.72,0,0,1,1.28-2.15,4.54,4.54,0,0,1,3.61,0,1,1,0,0,1-.75,1.86h0a2.64,2.64,0,0,0-1.84-.13c-.06,0-.26.15-.32.66a2.68,2.68,0,0,0,.47,2.09,4.45,4.45,0,0,0,3.09,1.25,2.12,2.12,0,0,0,1.78-1.11,7.89,7.89,0,0,0,.62-7.16l-.08-.16c-1.91-3.94-5.87-12.14-15.88-14.91a18.23,18.23,0,0,0-14.33,2.37c-4,2.43-6.83,6-7.5,9.37a12.43,12.43,0,0,0,3.34,10.54,11.09,11.09,0,0,0,9.81,3.54c5-.7,7.46-3.22,8.69-5.21s1.54-4.12,1.19-5.16a8.73,8.73,0,0,0-4.07-5,5.75,5.75,0,0,0-4.65,0c-2.42,1-3,2.81-2.5,4.22s1.95,2.38,4.18,1.68a1,1,0,1,1,.6,1.91c-3.33,1-5.88-.69-6.67-2.93s0-5.3,3.65-6.74a7.63,7.63,0,0,1,6.23,0,10.64,10.64,0,0,1,5.13,6.2c.6,1.79,0,4.54-1.39,6.84a13.77,13.77,0,0,1-10.11,6.14A12.65,12.65,0,0,1,1801.69,1008.49Z"/><path class="cls-4" d="M1723.27,1009.24a4.21,4.21,0,1,1,3-1.23A4.2,4.2,0,0,1,1723.27,1009.24Zm0-6.42a2.22,2.22,0,1,0,1.56.65A2.22,2.22,0,0,0,1723.27,1002.82Z"/><path class="cls-5" d="M1836.14,947.68a12.32,12.32,0,0,1-2.74-.31,11.23,11.23,0,0,1-8.19-7.85c-3.1-9.3,8.07-19.45,11.74-22.79l.78-.72.08-.08c5-5,6.82-9.87,5.28-14.38-1.12-3.31-3-5.36-5.15-5.49a2.83,2.83,0,0,0-2.79,1.59c-1.13,2.32.37,3.68,1.84,4.41.57.29,1.43-.29,1.69-.51a1,1,0,0,1,1.33,1.5,3.73,3.73,0,0,1-3.92.8c-2.4-1.2-4.39-3.7-2.74-7.08a4.89,4.89,0,0,1,4.71-2.71c2.94.19,5.53,2.75,6.92,6.84,1.81,5.29-.13,10.83-5.76,16.45l-.08.07c-.17.17-.46.44-.85.79-9.2,8.37-13,15.32-11.18,20.68,1.49,4.46,4.48,6,6.73,6.53,3.57.82,7.17-.44,8.74-2a6.37,6.37,0,0,0,1-6.72,4.88,4.88,0,0,0-4.75-3h-.09a3.28,3.28,0,0,0-3.23,1.79,3.7,3.7,0,0,0,.4,3.66,1.22,1.22,0,0,0,1.35.46,1,1,0,0,1,.54,1.93,3.24,3.24,0,0,1-3.41-1.09,5.67,5.67,0,0,1-.7-5.78,5.15,5.15,0,0,1,5-3,6.91,6.91,0,0,1,6.71,4.26,8.41,8.41,0,0,1-1.45,8.89A11.41,11.41,0,0,1,1836.14,947.68Z"/><path class="cls-6" d="M1835.32,993.66a8.43,8.43,0,0,1-3.72-.81l-.16-.07c-3.88-1.88-13-6.27-16-17.15a20.27,20.27,0,0,1,2.6-15.91c2.75-4.48,6.75-7.62,10.68-8.41a14.27,14.27,0,0,1,12.31,3.85,13.19,13.19,0,0,1,4.14,11.54,13.76,13.76,0,0,1-6.13,10.11c-2.31,1.43-5.06,2-6.85,1.39a10.71,10.71,0,0,1-6.2-5.13,7.67,7.67,0,0,1,0-6.23c1.45-3.63,4.51-4.44,6.75-3.65s4,3.33,2.92,6.66a1,1,0,1,1-1.91-.59c.7-2.23-.34-3.71-1.68-4.18s-3.26.08-4.22,2.5a5.68,5.68,0,0,0,0,4.64,8.73,8.73,0,0,0,5,4.08c1,.35,3.15.05,5.16-1.19s4.52-3.74,5.21-8.69a11.09,11.09,0,0,0-3.54-9.81,12.42,12.42,0,0,0-10.53-3.34c-3.36.67-7,3.54-9.38,7.49a18.3,18.3,0,0,0-2.37,14.34c2.77,10,11,14,14.92,15.88l.16.07a7.84,7.84,0,0,0,7.15-.61,2.17,2.17,0,0,0,1.12-1.79,4.5,4.5,0,0,0-1.26-3.09,2.7,2.7,0,0,0-2.08-.46c-.51.06-.63.25-.67.32a2.64,2.64,0,0,0,.13,1.84,1,1,0,0,1-.56,1.3,1,1,0,0,1-1.3-.55c-.08-.22-.84-2.18,0-3.61a2.73,2.73,0,0,1,2.16-1.29,4.6,4.6,0,0,1,3.57.9,6.25,6.25,0,0,1,2,4.45,4,4,0,0,1-2,3.62A9.88,9.88,0,0,1,1835.32,993.66Z"/><path class="cls-7" d="M1841.87,890.64a4.21,4.21,0,1,1,3-1.23A4.2,4.2,0,0,1,1841.87,890.64Zm0-6.42a2.22,2.22,0,1,0,1.56.65A2.22,2.22,0,0,0,1841.87,884.22Z"/><path class="cls-8" d="M1851.69,1016.46c-2.07,0-8.61-.35-12.81-4.55-4.94-4.94-4.56-13.11-4.54-13.46a1,1,0,0,1,.94-.94c.35,0,8.52-.4,13.46,4.53s4.56,13.11,4.54,13.46a1,1,0,0,1-1,.94A5.88,5.88,0,0,1,1851.69,1016.46Zm.59-1h0Zm-15.94-15.94c.06,2.17.56,7.6,4,11s8.82,3.9,11,4c-.06-2.17-.56-7.6-4-11S1838.51,999.56,1836.34,999.5Z"/><path class="cls-9" d="M1837.26,152a4.87,4.87,0,0,1-4.39-2.71c-1.65-3.38.33-5.88,2.74-7.08a3.73,3.73,0,0,1,3.92.8,1,1,0,0,1,.08,1.42,1,1,0,0,1-1.41.08c-.26-.22-1.12-.8-1.69-.51-1.47.73-3,2.09-1.84,4.42a2.84,2.84,0,0,0,2.78,1.58c2.11-.13,4-2.19,5.16-5.49,1.54-4.51-.24-9.35-5.28-14.38l-.08-.08-.78-.72c-3.67-3.34-14.84-13.49-11.74-22.79a11.23,11.23,0,0,1,8.19-7.85c4.32-1,8.61.56,10.61,2.61a8.4,8.4,0,0,1,1.45,8.89,6.86,6.86,0,0,1-6.6,4.26h-.11a5.15,5.15,0,0,1-5-3,5.67,5.67,0,0,1,.7-5.78,3.24,3.24,0,0,1,3.41-1.09,1,1,0,0,1-.54,1.93,1.22,1.22,0,0,0-1.35.46,3.7,3.7,0,0,0-.4,3.66,3.28,3.28,0,0,0,3.23,1.78h.09a4.87,4.87,0,0,0,4.75-3.05,6.35,6.35,0,0,0-1-6.71c-1.57-1.61-5.17-2.87-8.74-2-2.25.52-5.24,2.07-6.73,6.53-1.78,5.35,2,12.31,11.18,20.68.39.35.68.62.85.79l.08.08c5.63,5.61,7.57,11.14,5.76,16.43-1.39,4.1-4,6.66-6.92,6.84Z"/><path class="cls-10" d="M1830.63,95a11.76,11.76,0,0,1-2.37-.23c-3.93-.79-7.93-3.93-10.69-8.41A20.3,20.3,0,0,1,1815,70.41c3-10.88,12.1-15.27,16-17.15l.15-.08a9.8,9.8,0,0,1,9.17.78,4,4,0,0,1,2,3.62,6.27,6.27,0,0,1-2,4.45,4.61,4.61,0,0,1-3.57.89,2.7,2.7,0,0,1-2.16-1.28c-.85-1.43-.09-3.39,0-3.61a1,1,0,0,1,1.86.75h0a2.64,2.64,0,0,0-.13,1.84c0,.07.16.26.67.32a2.7,2.7,0,0,0,2.08-.46,4.5,4.5,0,0,0,1.26-3.09,2.17,2.17,0,0,0-1.12-1.79A7.87,7.87,0,0,0,1832,55l-.16.08c-3.95,1.91-12.15,5.87-14.92,15.88a18.3,18.3,0,0,0,2.37,14.34c2.43,4,6,6.82,9.38,7.49a12.42,12.42,0,0,0,10.53-3.34,11.09,11.09,0,0,0,3.54-9.81c-.7-5-3.22-7.45-5.21-8.69s-4.12-1.54-5.16-1.19a8.73,8.73,0,0,0-5,4.08,5.68,5.68,0,0,0,0,4.64c1,2.42,2.81,3,4.22,2.5s2.38-1.95,1.68-4.18a1,1,0,1,1,1.91-.59c1,3.33-.69,5.87-2.92,6.66s-5.3,0-6.75-3.65a7.67,7.67,0,0,1,0-6.23,10.71,10.71,0,0,1,6.2-5.13c1.79-.59,4.54,0,6.84,1.39a13.77,13.77,0,0,1,6.14,10.11,13.2,13.2,0,0,1-4.15,11.54A14.69,14.69,0,0,1,1830.63,95Z"/><path class="cls-11" d="M1841.39,163.82a4.16,4.16,0,0,1-3-1.24,4.21,4.21,0,1,1,5.95,0A4.15,4.15,0,0,1,1841.39,163.82Zm0-6.42a2.21,2.21,0,0,0-1.57,3.77,2.26,2.26,0,0,0,3.13,0,2.21,2.21,0,0,0-1.56-3.77Z"/><path class="cls-12" d="M1772.51,58.2c-8.27,0-16.49-9.05-19.43-12.28-.32-.35-.56-.62-.72-.78l-.08-.08c-5-5-9.87-6.81-14.38-5.28-3.3,1.13-5.35,3-5.49,5.16a2.83,2.83,0,0,0,1.59,2.78c2.32,1.14,3.68-.37,4.42-1.84.33-.67-.51-1.67-.52-1.68a1,1,0,0,1,.09-1.42,1,1,0,0,1,1.41.09,3.69,3.69,0,0,1,.8,3.91c-1.2,2.41-3.69,4.39-7.08,2.74a4.85,4.85,0,0,1-2.7-4.71c.18-2.94,2.74-5.53,6.84-6.92,5.28-1.8,10.82.13,16.44,5.76l.07.08c.17.17.44.46.79.85,8.37,9.2,15.33,13,20.68,11.18,4.46-1.48,6-4.48,6.53-6.73.82-3.57-.44-7.17-2-8.74a6.37,6.37,0,0,0-6.71-1,4.89,4.89,0,0,0-3,4.85,3.26,3.26,0,0,0,1.78,3.22,3.67,3.67,0,0,0,3.66-.4,1.2,1.2,0,0,0,.46-1.35,1,1,0,0,1,1.93-.53,3.22,3.22,0,0,1-1.08,3.4,5.69,5.69,0,0,1-5.79.71,5.17,5.17,0,0,1-3-5,6.85,6.85,0,0,1,4.25-6.7,8.42,8.42,0,0,1,8.9,1.44c2,2,3.6,6.29,2.6,10.62a11.23,11.23,0,0,1-7.85,8.18A10.54,10.54,0,0,1,1772.51,58.2Z"/><path class="cls-13" d="M1807.15,68.06a21.26,21.26,0,0,1-11.08-3.24c-4.48-2.76-7.62-6.75-8.41-10.69a14.26,14.26,0,0,1,3.85-12.3,13.2,13.2,0,0,1,11.54-4.15,13.77,13.77,0,0,1,10.11,6.14c1.43,2.3,2,5,1.39,6.84a10.67,10.67,0,0,1-5.13,6.2,7.63,7.63,0,0,1-6.23,0c-3.63-1.44-4.44-4.51-3.65-6.74s3.34-4,6.67-2.93a1,1,0,0,1-.6,1.91c-2.23-.7-3.71.34-4.18,1.68s.08,3.26,2.5,4.22a5.68,5.68,0,0,0,4.64,0,8.66,8.66,0,0,0,4.08-5c.35-1,0-3.15-1.19-5.16s-3.74-4.51-8.69-5.21A11.09,11.09,0,0,0,1793,43.2a12.43,12.43,0,0,0-3.34,10.54c.67,3.35,3.54,6.94,7.5,9.37a18.27,18.27,0,0,0,14.33,2.37c10-2.77,14-11,15.88-14.91l.08-.16a7.89,7.89,0,0,0-.62-7.16,2.14,2.14,0,0,0-1.78-1.11,4.41,4.41,0,0,0-3.09,1.25,2.67,2.67,0,0,0-.47,2.09c.06.51.26.62.32.66a2.63,2.63,0,0,0,1.84-.13,1,1,0,0,1,.75,1.86,4.54,4.54,0,0,1-3.61,0,2.7,2.7,0,0,1-1.28-2.15,4.61,4.61,0,0,1,.89-3.58,6.27,6.27,0,0,1,4.45-2,3.94,3.94,0,0,1,3.62,2,9.8,9.8,0,0,1,.78,9.17l-.08.16c-1.88,3.88-6.27,13-17.15,16A18.21,18.21,0,0,1,1807.15,68.06Z"/><path class="cls-14" d="M1722.78,45.21a4.21,4.21,0,0,1-3-7.18,4.19,4.19,0,0,1,6,0,4.21,4.21,0,0,1-3,7.18Zm0-6.42a2.19,2.19,0,0,0-1.56.65,2.21,2.21,0,1,0,3.13,0A2.19,2.19,0,0,0,1722.78,38.79Z"/><path class="cls-15" d="M1835.45,48.55a6.3,6.3,0,0,1-.65,0,1,1,0,0,1-.94-.94c0-.35-.4-8.52,4.54-13.46h0c4.93-4.93,13.1-4.55,13.45-4.53a1,1,0,0,1,1,.94c0,.35.4,8.52-4.54,13.46C1844.06,48.19,1837.52,48.55,1835.45,48.55Zm4.36-13c-3.39,3.39-3.89,8.81-4,11,2.17-.06,7.59-.57,11-4s3.9-8.82,4-11c-2.17.06-7.6.56-11,4Z"/><path class="cls-16" d="M47.8,152.06h-.32c-2.94-.18-5.53-2.74-6.92-6.84-1.81-5.29.13-10.82,5.76-16.44l.08-.08c.17-.17.46-.43.85-.79,9.2-8.36,13-15.32,11.18-20.67-1.49-4.46-4.48-6-6.73-6.54-3.57-.82-7.17.45-8.74,2.06a6.35,6.35,0,0,0-1,6.71,4.88,4.88,0,0,0,4.75,3h.09A3.28,3.28,0,0,0,50,110.71a3.7,3.7,0,0,0-.4-3.66,1.2,1.2,0,0,0-1.35-.45,1,1,0,0,1-.54-1.93,3.23,3.23,0,0,1,3.41,1.08,5.67,5.67,0,0,1,.7,5.79,5.15,5.15,0,0,1-5,3,6.85,6.85,0,0,1-6.71-4.25,8.42,8.42,0,0,1,1.45-8.9c2-2,6.29-3.6,10.62-2.6a11.24,11.24,0,0,1,8.18,7.84c3.1,9.31-8.07,19.46-11.74,22.8-.35.32-.62.56-.78.72l-.08.08c-5,5-6.82,9.87-5.28,14.38,1.13,3.3,3,5.35,5.16,5.48a2.81,2.81,0,0,0,2.78-1.58c1.14-2.32-.37-3.69-1.84-4.42-.67-.33-1.68.51-1.69.51a1,1,0,1,1-1.32-1.49,3.69,3.69,0,0,1,3.91-.81c2.41,1.21,4.39,3.7,2.74,7.09A4.87,4.87,0,0,1,47.8,152.06Z"/><path class="cls-17" d="M54.43,95A14.69,14.69,0,0,1,44.5,91a13.21,13.21,0,0,1-4.15-11.54,13.77,13.77,0,0,1,6.14-10.11c2.3-1.43,5.06-2,6.84-1.39a10.64,10.64,0,0,1,6.2,5.13,7.61,7.61,0,0,1,0,6.22c-1.45,3.64-4.51,4.45-6.75,3.66s-4-3.34-2.92-6.67a1,1,0,1,1,1.91.59c-.7,2.24.34,3.72,1.68,4.19s3.26-.08,4.22-2.5a5.7,5.7,0,0,0,0-4.65,8.77,8.77,0,0,0-5-4.08A7.07,7.07,0,0,0,47.54,71c-2,1.23-4.51,3.74-5.21,8.68a11.07,11.07,0,0,0,3.54,9.81A12.39,12.39,0,0,0,56.4,92.85c3.36-.67,7-3.55,9.38-7.5A18.27,18.27,0,0,0,68.15,71c-2.77-10-11-14-14.91-15.88l-.16-.08a7.89,7.89,0,0,0-7.16.62,2.11,2.11,0,0,0-1.11,1.78,4.41,4.41,0,0,0,1.25,3.09,2.62,2.62,0,0,0,2.08.46c.52-.06.63-.25.67-.31a2.66,2.66,0,0,0-.13-1.84,1,1,0,1,1,1.86-.76,4.56,4.56,0,0,1,0,3.62A2.72,2.72,0,0,1,48.38,63a4.61,4.61,0,0,1-3.58-.89,6.27,6.27,0,0,1-2-4.45,3.94,3.94,0,0,1,2-3.62A9.77,9.77,0,0,1,54,53.26l.16.08c3.87,1.87,13,6.26,16,17.15A20.3,20.3,0,0,1,67.49,86.4C64.73,90.88,60.73,94,56.8,94.81A12.53,12.53,0,0,1,54.43,95Z"/><path class="cls-18" d="M43.67,163.89a4.2,4.2,0,1,1,3-1.23A4.18,4.18,0,0,1,43.67,163.89Zm0-6.42a2.21,2.21,0,1,0,1.57,3.78,2.24,2.24,0,0,0,.64-1.57,2.2,2.2,0,0,0-2.21-2.21Z"/><path class="cls-19" d="M112.55,58.27a10.53,10.53,0,0,1-3.36-.53,11.23,11.23,0,0,1-7.85-8.19c-1-4.32.56-8.61,2.6-10.61a8.42,8.42,0,0,1,8.9-1.45,6.87,6.87,0,0,1,4.25,6.71,5.15,5.15,0,0,1-3,5,5.65,5.65,0,0,1-5.78-.71,3.22,3.22,0,0,1-1.09-3.4,1,1,0,0,1,1.93.53,1.22,1.22,0,0,0,.46,1.35,3.67,3.67,0,0,0,3.66.41,3.28,3.28,0,0,0,1.78-3.23,4.86,4.86,0,0,0-3-4.84,6.35,6.35,0,0,0-6.71,1c-1.61,1.57-2.87,5.16-2,8.73.51,2.26,2.07,5.25,6.53,6.74,5.35,1.78,12.31-2,20.68-11.18.35-.39.62-.68.79-.85l.07-.08C137,38.1,142.51,36.16,147.8,38c4.1,1.4,6.66,4,6.84,6.93a4.85,4.85,0,0,1-2.7,4.71c-3.39,1.65-5.88-.34-7.08-2.75a3.72,3.72,0,0,1,.8-3.91,1,1,0,0,1,1.5,1.33c-.22.26-.8,1.12-.51,1.69.73,1.47,2.09,3,4.41,1.84A2.84,2.84,0,0,0,152.65,45c-.13-2.1-2.19-4-5.49-5.15-4.51-1.54-9.35.24-14.38,5.28l-.08.08c-.16.16-.4.43-.72.78C129,49.23,120.82,58.27,112.55,58.27Z"/><path class="cls-20" d="M77.92,68.13a18.22,18.22,0,0,1-4.84-.64c-10.88-3-15.27-12.1-17.15-16l-.08-.16a9.8,9.8,0,0,1,.78-9.17,4,4,0,0,1,3.62-2,6.24,6.24,0,0,1,4.45,2,4.6,4.6,0,0,1,.89,3.57,2.7,2.7,0,0,1-1.28,2.16,4.53,4.53,0,0,1-3.61,0,1,1,0,1,1,.75-1.85h0a2.63,2.63,0,0,0,1.84.13c.07,0,.26-.16.32-.67a2.73,2.73,0,0,0-.46-2.09,4.55,4.55,0,0,0-3.1-1.25,2.17,2.17,0,0,0-1.78,1.12,7.87,7.87,0,0,0-.62,7.15l.08.16c1.91,3.94,5.87,12.15,15.88,14.92a18.27,18.27,0,0,0,14.33-2.37c4-2.43,6.83-6,7.5-9.38A12.41,12.41,0,0,0,92.1,43.28a11.07,11.07,0,0,0-9.81-3.54c-5,.69-7.46,3.21-8.69,5.21s-1.54,4.11-1.19,5.16a8.69,8.69,0,0,0,4.08,5,5.68,5.68,0,0,0,4.64,0c2.42-1,3-2.81,2.5-4.22s-1.95-2.38-4.18-1.68a1,1,0,0,1-.6-1.91c3.33-1,5.88.68,6.67,2.92s0,5.3-3.65,6.75a7.63,7.63,0,0,1-6.23,0,10.66,10.66,0,0,1-5.13-6.19c-.6-1.79,0-4.54,1.39-6.85A13.73,13.73,0,0,1,82,37.76,13.18,13.18,0,0,1,93.55,41.9,14.27,14.27,0,0,1,97.4,54.2c-.79,3.94-3.93,7.94-8.41,10.69A21.16,21.16,0,0,1,77.92,68.13Z"/><path class="cls-21" d="M162.28,45.29a4.2,4.2,0,0,1-3-1.23h0a4.21,4.21,0,1,1,3,1.23Zm-1.57-2.65a2.21,2.21,0,1,0,0-3.12A2.2,2.2,0,0,0,160.71,42.64Z"/><path class="cls-22" d="M49.62,48.62c-2.08,0-8.62-.35-12.82-4.55C31.86,39.13,32.25,31,32.26,30.62a1,1,0,0,1,1-.95c.35,0,8.52-.4,13.45,4.54s4.56,13.11,4.54,13.45a1,1,0,0,1-.94,1Zm.58-1h0ZM34.26,31.67c.06,2.17.56,7.59,4,11s8.82,3.9,11,4c-.06-2.17-.57-7.59-4-11S36.43,31.73,34.26,31.67Z"/><path class="cls-23" d="M108.84,1009.21a8.05,8.05,0,0,1-5.57-2.11c-2-2-3.6-6.29-2.6-10.62a11.22,11.22,0,0,1,7.85-8.18c9.3-3.11,19.45,8.06,22.79,11.73.32.36.56.63.72.78l.08.08c5,5.05,9.87,6.82,14.38,5.29,3.3-1.13,5.35-3.06,5.49-5.16a2.86,2.86,0,0,0-1.59-2.79c-2.32-1.13-3.68.38-4.42,1.84-.28.57.3,1.44.52,1.7a1,1,0,0,1-1.5,1.32,3.7,3.7,0,0,1-.8-3.91c1.2-2.41,3.69-4.39,7.08-2.74a4.85,4.85,0,0,1,2.7,4.71c-.18,2.94-2.74,5.52-6.84,6.92-5.29,1.8-10.82-.14-16.44-5.76l-.07-.08c-.17-.17-.44-.46-.79-.85-8.37-9.21-15.33-13-20.68-11.19-4.46,1.49-6,4.49-6.53,6.74-.82,3.57.44,7.17,2,8.74a6.35,6.35,0,0,0,6.71,1,4.87,4.87,0,0,0,3-4.84,3.27,3.27,0,0,0-1.79-3.22,3.68,3.68,0,0,0-3.66.4,1.21,1.21,0,0,0-.45,1.35,1,1,0,0,1-1.93.53,3.22,3.22,0,0,1,1.08-3.4,5.69,5.69,0,0,1,5.79-.71,5.16,5.16,0,0,1,3,5,6.86,6.86,0,0,1-4.25,6.7A8.47,8.47,0,0,1,108.84,1009.21Z"/><path class="cls-24" d="M83.18,1008.41a12.75,12.75,0,0,1-1.84-.13,13.77,13.77,0,0,1-10.11-6.14c-1.43-2.3-2-5.06-1.39-6.85A10.65,10.65,0,0,1,75,989.1a7.63,7.63,0,0,1,6.23,0c3.63,1.44,4.44,4.51,3.65,6.74s-3.34,4-6.67,2.93a1,1,0,1,1,.6-1.91c2.23.7,3.71-.34,4.18-1.68s-.08-3.26-2.5-4.22a5.72,5.72,0,0,0-4.64,0,8.71,8.71,0,0,0-4.08,5c-.35,1,0,3.15,1.19,5.16s3.74,4.51,8.69,5.21a11.09,11.09,0,0,0,9.81-3.54,12.43,12.43,0,0,0,3.34-10.54c-.67-3.35-3.54-6.94-7.5-9.38a18.27,18.27,0,0,0-14.33-2.36c-10,2.77-14,11-15.88,14.91l-.08.16a7.89,7.89,0,0,0,.62,7.16,2.15,2.15,0,0,0,1.78,1.11,4.45,4.45,0,0,0,3.09-1.25,2.68,2.68,0,0,0,.47-2.09c-.06-.51-.26-.62-.32-.66a2.72,2.72,0,0,0-1.85.12,1,1,0,0,1-1.29-.55,1,1,0,0,1,.55-1.3,4.54,4.54,0,0,1,3.61,0,2.7,2.7,0,0,1,1.28,2.15,4.59,4.59,0,0,1-.89,3.57,6.24,6.24,0,0,1-4.45,2,4,4,0,0,1-3.62-2,9.8,9.8,0,0,1-.78-9.17l.08-.16c1.87-3.88,6.26-13,17.15-16a20.26,20.26,0,0,1,15.91,2.59c4.48,2.76,7.62,6.75,8.41,10.69a14.26,14.26,0,0,1-3.85,12.3A13.27,13.27,0,0,1,83.18,1008.41Z"/><path class="cls-25" d="M161.6,1009.16a4.21,4.21,0,1,1,3-7.18,4.19,4.19,0,0,1,0,5.95A4.2,4.2,0,0,1,161.6,1009.16Zm0-6.42a2.21,2.21,0,1,0,2.22,2.21,2.19,2.19,0,0,0-.65-1.56A2.22,2.22,0,0,0,161.6,1002.74Z"/><path class="cls-26" d="M48.73,947.6a11.41,11.41,0,0,1-7.87-2.92,8.41,8.41,0,0,1-1.45-8.89,6.86,6.86,0,0,1,6.6-4.26h.11a5.15,5.15,0,0,1,5,3,5.67,5.67,0,0,1-.7,5.78A3.21,3.21,0,0,1,47,941.36a1,1,0,0,1,.54-1.92,1.22,1.22,0,0,0,1.35-.46,3.7,3.7,0,0,0,.4-3.66,3.28,3.28,0,0,0-3.23-1.79H46a4.88,4.88,0,0,0-4.75,3,6.37,6.37,0,0,0,1,6.72c1.57,1.6,5.17,2.87,8.74,2.05,2.25-.52,5.24-2.07,6.73-6.53,1.79-5.36-2-12.31-11.18-20.68-.39-.35-.68-.62-.85-.79l-.08-.07c-5.63-5.62-7.57-11.16-5.76-16.45,1.39-4.09,4-6.65,6.92-6.84a4.87,4.87,0,0,1,4.71,2.71c1.65,3.38-.33,5.88-2.74,7.08a3.72,3.72,0,0,1-3.92-.81,1,1,0,1,1,1.33-1.49c.26.22,1.12.8,1.69.51,1.47-.73,3-2.09,1.84-4.42A2.81,2.81,0,0,0,46.94,896c-2.11.13-4,2.18-5.16,5.49-1.54,4.51.24,9.35,5.28,14.38l.08.08.78.72c3.67,3.33,14.84,13.48,11.74,22.79a11.23,11.23,0,0,1-8.19,7.85A12.32,12.32,0,0,1,48.73,947.6Z"/><path class="cls-27" d="M49.55,993.58A9.88,9.88,0,0,1,44.11,992a4,4,0,0,1-2-3.62,6.25,6.25,0,0,1,2-4.45,4.6,4.6,0,0,1,3.57-.9,2.73,2.73,0,0,1,2.16,1.29c.85,1.43.09,3.39,0,3.61a1,1,0,0,1-1.86-.75h0a2.64,2.64,0,0,0,.13-1.84c0-.07-.16-.26-.67-.32a2.7,2.7,0,0,0-2.08.46,4.48,4.48,0,0,0-1.26,3.09,2.17,2.17,0,0,0,1.12,1.79,7.84,7.84,0,0,0,7.15.61l.16-.07C56.51,989,64.71,985,67.48,975a18.29,18.29,0,0,0-2.37-14.33c-2.43-3.95-6-6.82-9.38-7.49a12.42,12.42,0,0,0-10.53,3.34,11.08,11.08,0,0,0-3.54,9.81c.69,4.94,3.22,7.45,5.21,8.69A7.08,7.08,0,0,0,52,976.22a8.77,8.77,0,0,0,5-4.08,5.68,5.68,0,0,0,0-4.64c-1-2.42-2.81-3-4.22-2.51s-2.38,2-1.68,4.19a1,1,0,1,1-1.91.59c-1-3.33.69-5.87,2.92-6.66s5.3,0,6.75,3.65a7.65,7.65,0,0,1,0,6.22,10.69,10.69,0,0,1-6.2,5.14c-1.79.6-4.54,0-6.85-1.39a13.76,13.76,0,0,1-6.13-10.11,13.19,13.19,0,0,1,4.14-11.54,14.25,14.25,0,0,1,12.31-3.85c3.93.78,7.93,3.93,10.68,8.41a20.27,20.27,0,0,1,2.6,15.91c-3,10.88-12.1,15.27-16,17.15l-.16.07A8.51,8.51,0,0,1,49.55,993.58Z"/><path class="cls-28" d="M43,890.56a4.21,4.21,0,1,1,3-1.23A4.22,4.22,0,0,1,43,890.56Zm0-6.42a2.21,2.21,0,0,0-1.56.65,2.21,2.21,0,0,0,3.13,3.12,2.21,2.21,0,0,0,0-3.12A2.24,2.24,0,0,0,43,884.14Z"/><path class="cls-29" d="M33.18,1016.38a5.88,5.88,0,0,1-.64,0,1,1,0,0,1-.95-.94c0-.35-.4-8.52,4.54-13.46h0c4.94-4.93,13.11-4.55,13.46-4.53a1,1,0,0,1,.94.94c0,.35.4,8.52-4.54,13.46C41.79,1016,35.25,1016.38,33.18,1016.38Zm4.36-13c-3.4,3.4-3.9,8.82-3.95,11,2.17-.06,7.6-.57,11-4s3.89-8.81,4-11c-2.17.06-7.59.57-11,4Z"/><polygon class="cls-30" points="52.38 507.34 56.83 519.38 68.88 523.84 56.83 528.3 52.38 540.34 47.92 528.3 35.88 523.84 47.92 519.38 52.38 507.34 52.38 507.34"/><polygon class="cls-30" points="1831.28 507.34 1835.74 519.38 1847.78 523.84 1835.74 528.3 1831.28 540.34 1826.83 528.3 1814.78 523.84 1826.83 519.38 1831.28 507.34 1831.28 507.34"/></g></g></svg>