<svg xmlns="http://www.w3.org/2000/svg" viewBox="0 0 1404.2 433.62"><defs><style>.cls-1{fill:#4c1c1c;}.cls-2{fill:none;stroke:#4c1c1c;stroke-linecap:round;stroke-miterlimit:10;}</style></defs><g id="Layer_2" data-name="Layer 2"><g id="Text"><path class="cls-1" d="M10.63,27.83a11.75,11.75,0,0,1-6.87,1.44A4.39,4.39,0,0,1,0,25.54c-.21-2.44,1.6-3.43,2.71-2a9.72,9.72,0,0,0,2.78,2.43,6.41,6.41,0,0,0,4.26.54C11.6,26.06,12.15,26.89,10.63,27.83Z"/><path class="cls-1" d="M18.39,29A11.77,11.77,0,0,0,17,35.86a4.4,4.4,0,0,0,3.73,3.74c2.44.2,3.43-1.6,2-2.72a9.72,9.72,0,0,1-2.43-2.78,6.4,6.4,0,0,1-.54-4.26C20.16,28,19.33,27.48,18.39,29Z"/><path class="cls-1" d="M35.35,5.58a5.92,5.92,0,0,0,1.11-3.4A2.22,2.22,0,0,0,34.79.09C33.56-.15,33,.7,33.6,1.34a4.89,4.89,0,0,1,1.07,1.54,3.26,3.26,0,0,1,0,2.19C34.4,6,34.79,6.29,35.35,5.58Z"/><path class="cls-1" d="M31.41,13.21a8.61,8.61,0,0,1,4.76,2,3.23,3.23,0,0,1,.68,3.83c-.9,1.56-2.41,1.4-2.5.09a7.16,7.16,0,0,0-.65-2.64,4.69,4.69,0,0,0-2.35-2.12C30.08,13.87,30.1,13.14,31.41,13.21Z"/><path class="cls-1" d="M.92,51.18a8.07,8.07,0,0,0,3.3,3.13c.81.34.77.61-.12,1.26a7.18,7.18,0,0,0-2.46,4.58c-.43,2-.49,17.77-.54,19.89,0,1.23-1,1.2-1,0V51.25C.11,50.62.64,50.55.92,51.18Z"/><path class="cls-1" d="M50.27.81A7.91,7.91,0,0,1,53.4,4.1c.35.82.61.78,1.26-.11a7.21,7.21,0,0,1,4.59-2.46C61.28,1.1,77,1,79.14,1c1.22,0,1.19-1,0-1H50.34C49.71,0,49.64.53,50.27.81Z"/><path class="cls-1" d="M6,53.62C.59,51.19-.53,43.36,1.28,38.34c2.1-5.85,8.61-8.47,13.47-11.57,5.09-3.24,9.28-9.59,7.19-15.83a11.52,11.52,0,0,0-6.2-6.73,10.93,10.93,0,0,0-8.61.36C2,6.84-1,14.38,4.23,18.2c4,3,10.34.36,11.12-4.63.4-2.53-1.88-4.24-4.21-4.22a4.18,4.18,0,0,0-3,1.61,5.07,5.07,0,0,0-.5.67,2.26,2.26,0,0,1,1.49,1.81A2,2,0,0,1,8,16c-.8.17-1.64-.51-2-1.55,0-.12-.06-.22-.08-.28A6.23,6.23,0,0,1,8.15,7.82a4.85,4.85,0,0,1,6.53.85c3.6,4.25,1.7,10.59-3.17,12.78a7.53,7.53,0,0,1-7.22-1,10,10,0,0,1-3.87-6.7A10.8,10.8,0,0,1,8,1.53C14-.3,19.4,3.13,22,8.41a15.92,15.92,0,0,1-2,16.84c-3.73,4.67-9.94,6.51-14.38,10.37a11.44,11.44,0,0,0-4,8.82A7.4,7.4,0,0,0,6.5,51.52a8.45,8.45,0,0,0,7-.58,6.67,6.67,0,0,0,2.93-7.48c-.9-2.78-4.25-3.31-6.68-2.51a5.13,5.13,0,0,0-3,2.71,1.93,1.93,0,0,0,.62,2.57,2.37,2.37,0,0,1,1.7-.67,2,2,0,0,1,2.14,1.7A2,2,0,0,1,9.09,49C6.4,49,5.56,46.14,5.38,43.9a5.51,5.51,0,0,1,4.09-5.52c6.09-2,9.18,5,8.21,10C16.62,53.76,10.69,55.72,6,53.62Z"/><path class="cls-1" d="M45.64,18.6a6.55,6.55,0,0,1-6.3-4.77c-1-3.52,1.16-7.88,5.23-7.56a3.93,3.93,0,0,1,3.52,3.12c.4,1.53.34,3.76-1,4.81a1.64,1.64,0,0,1-2.27.05,1.63,1.63,0,0,1,.6-2.19,2.05,2.05,0,0,1,1.45-.47C48.22,10.28,45.9,9,44.7,8.81a4.3,4.3,0,0,0-4.15,2.09c-1,1.57.14,3.23,1.5,4.12a8.16,8.16,0,0,0,5,1c3.52-.29,5.91-4.23,5.07-7.55A7.33,7.33,0,0,0,44.6,3.26c-3.43.22-5.9,3-8.2,5.19s-4.7,4.86-8.31,4.48c-2.88-.31-4.55-2.46-5.07-5.15s.25-5.64,2.89-6.67a4.37,4.37,0,0,1,5.58,2.26c.94,1.86.38,4.83-1.61,5.74a1.86,1.86,0,0,1-2.54-.59,1.86,1.86,0,0,1,1.07-2.38,2.14,2.14,0,0,1,1.94,0c.35-.28.63-.62.52-.91a3.35,3.35,0,0,0-1.58-1.53,3.87,3.87,0,0,0-4.45.81,3.08,3.08,0,0,0-.16,4.18,5.26,5.26,0,0,0,4.38,1.77c3.52,0,6.14-3.68,8.46-5.9s4.86-4,8.17-3.83c6.44.4,9.12,8.33,6.87,13.59A6.77,6.77,0,0,1,45.64,18.6Z"/><path class="cls-1" d="M27.84,423a11.67,11.67,0,0,1,1.44,6.87,4.4,4.4,0,0,1-3.73,3.73c-2.44.2-3.43-1.6-2-2.71a9.57,9.57,0,0,0,2.43-2.78,6.42,6.42,0,0,0,.54-4.26C26.07,422,26.9,421.48,27.84,423Z"/><path class="cls-1" d="M29,415.24a11.8,11.8,0,0,0,6.88,1.44,4.4,4.4,0,0,0,3.73-3.74c.2-2.43-1.6-3.42-2.72-2a9.72,9.72,0,0,1-2.78,2.43,6.4,6.4,0,0,1-4.26.54C28,413.46,27.49,414.3,29,415.24Z"/><path class="cls-1" d="M5.59,398.28a5.92,5.92,0,0,0-3.4-1.11A2.22,2.22,0,0,0,.1,398.84c-.24,1.23.61,1.83,1.25,1.19A4.81,4.81,0,0,1,2.9,399a3.17,3.17,0,0,1,2.18,0C6,399.23,6.3,398.84,5.59,398.28Z"/><path class="cls-1" d="M13.22,402.22a8.58,8.58,0,0,1,2-4.76,3.23,3.23,0,0,1,3.83-.68c1.56.9,1.4,2.41.09,2.49a7.16,7.16,0,0,0-2.64.66,4.65,4.65,0,0,0-2.12,2.35C13.88,403.55,13.15,403.53,13.22,402.22Z"/><path class="cls-1" d="M51.19,432.71a8,8,0,0,0,3.13-3.3c.34-.81.61-.77,1.26.12A7.21,7.21,0,0,0,60.16,432c2,.43,17.78.49,19.9.54,1.22,0,1.19,1,0,1H51.26C50.63,433.52,50.56,433,51.19,432.71Z"/><path class="cls-1" d="M.82,383.36a7.91,7.91,0,0,1,3.29-3.13c.82-.35.78-.61-.11-1.26a7.21,7.21,0,0,1-2.46-4.59c-.43-2-.49-17.77-.54-19.89,0-1.22-1-1.19-1,0v28.76C0,383.92.54,384,.82,383.36Z"/><path class="cls-1" d="M53.63,427.62c-2.43,5.42-10.26,6.54-15.28,4.73-5.85-2.1-8.47-8.62-11.57-13.47-3.24-5.09-9.59-9.29-15.83-7.19a11.52,11.52,0,0,0-6.73,6.2,10.93,10.93,0,0,0,.36,8.61c2.28,5.15,9.81,8.12,13.63,2.9,3-4,.36-10.34-4.63-11.12-2.53-.4-4.24,1.88-4.22,4.21a4.21,4.21,0,0,0,1.61,3,5.83,5.83,0,0,0,.67.5,2.26,2.26,0,0,1,1.81-1.49A2,2,0,0,1,16,425.59c.17.8-.51,1.64-1.55,2l-.28.08a6.23,6.23,0,0,1-6.31-2.17A4.85,4.85,0,0,1,8.68,419c4.25-3.6,10.59-1.7,12.78,3.17a7.53,7.53,0,0,1-1,7.22,10,10,0,0,1-6.7,3.87,10.8,10.8,0,0,1-12.22-7.62c-1.83-5.94,1.6-11.36,6.88-14a15.93,15.93,0,0,1,16.84,2c4.67,3.74,6.51,9.95,10.37,14.39a11.44,11.44,0,0,0,8.82,4,7.4,7.4,0,0,0,7.08-4.87,8.45,8.45,0,0,0-.58-7,6.67,6.67,0,0,0-7.48-2.93c-2.78.9-3.31,4.24-2.5,6.68a5.08,5.08,0,0,0,2.7,3,1.93,1.93,0,0,0,2.57-.62,2.37,2.37,0,0,1-.67-1.7,2,2,0,0,1,1.7-2.14A2,2,0,0,1,49,424.54c0,2.69-2.81,3.53-5.05,3.7a5.5,5.5,0,0,1-5.52-4.08c-2-6.1,5.06-9.18,10-8.21C53.77,417,55.73,422.94,53.63,427.62Z"/><path class="cls-1" d="M18.61,388a6.55,6.55,0,0,1-4.77,6.3c-3.52,1-7.88-1.16-7.56-5.23a4,4,0,0,1,3.12-3.53c1.53-.39,3.76-.33,4.81,1a1.64,1.64,0,0,1,0,2.27,1.63,1.63,0,0,1-2.19-.6,2.12,2.12,0,0,1-.47-1.46c-1.3-1.37-2.59,1-2.78,2.15a4.28,4.28,0,0,0,2.09,4.14c1.57,1.05,3.23-.13,4.12-1.49a8.1,8.1,0,0,0,1-5c-.28-3.52-4.23-5.91-7.54-5.07A7.33,7.33,0,0,0,3.27,389c.22,3.43,2.95,5.9,5.19,8.2s4.86,4.7,4.48,8.31c-.31,2.88-2.46,4.55-5.15,5.07s-5.64-.25-6.67-2.89a4.37,4.37,0,0,1,2.26-5.58c1.86-.94,4.83-.38,5.74,1.61a1.86,1.86,0,0,1-.59,2.54,1.86,1.86,0,0,1-2.38-1.07,2.14,2.14,0,0,1,0-1.94c-.28-.35-.62-.63-.91-.52a3.35,3.35,0,0,0-1.53,1.58,3.87,3.87,0,0,0,.81,4.45,3.08,3.08,0,0,0,4.18.16,5.27,5.27,0,0,0,1.77-4.38c0-3.52-3.68-6.14-5.9-8.46s-4-4.86-3.82-8.17c.39-6.44,8.32-9.12,13.58-6.87A6.77,6.77,0,0,1,18.61,388Z"/><path class="cls-1" d="M1393.58,405.79a11.69,11.69,0,0,1,6.87-1.44,4.39,4.39,0,0,1,3.73,3.73c.21,2.44-1.6,3.43-2.71,2a9.42,9.42,0,0,0-2.78-2.43,6.41,6.41,0,0,0-4.26-.54C1392.62,407.56,1392.06,406.73,1393.58,405.79Z"/><path class="cls-1" d="M1385.82,404.63a11.72,11.72,0,0,0,1.44-6.88,4.4,4.4,0,0,0-3.73-3.73c-2.44-.2-3.43,1.6-2,2.72a9.67,9.67,0,0,1,2.43,2.77,6.44,6.44,0,0,1,.54,4.27C1384.05,405.59,1384.88,406.14,1385.82,404.63Z"/><path class="cls-1" d="M1368.87,428a5.93,5.93,0,0,0-1.12,3.4,2.22,2.22,0,0,0,1.68,2.09c1.22.24,1.82-.61,1.18-1.26a4.67,4.67,0,0,1-1.07-1.54,3.23,3.23,0,0,1,0-2.18C1369.81,427.65,1369.43,427.33,1368.87,428Z"/><path class="cls-1" d="M1372.8,420.41a8.71,8.71,0,0,1-4.76-2,3.25,3.25,0,0,1-.68-3.83c.9-1.56,2.41-1.4,2.5-.09a7.16,7.16,0,0,0,.65,2.64,4.69,4.69,0,0,0,2.35,2.12C1374.13,419.75,1374.11,420.48,1372.8,420.41Z"/><path class="cls-1" d="M1403.29,382.44a8,8,0,0,0-3.29-3.13c-.82-.35-.78-.61.11-1.26a7.21,7.21,0,0,0,2.46-4.58c.43-2,.49-17.78.54-19.9,0-1.22,1-1.19,1,.05v28.75C1404.1,383,1403.57,383.07,1403.29,382.44Z"/><path class="cls-1" d="M1353.94,432.81a7.94,7.94,0,0,1-3.13-3.3c-.35-.81-.61-.77-1.26.12a7.21,7.21,0,0,1-4.58,2.46c-2,.43-17.78.49-19.9.54-1.22,0-1.19,1,0,1h28.76C1354.5,433.62,1354.57,433.09,1353.94,432.81Z"/><path class="cls-1" d="M1398.2,380c5.42,2.43,6.55,10.26,4.74,15.28-2.11,5.85-8.62,8.47-13.48,11.57-5.09,3.24-9.28,9.59-7.19,15.83a11.55,11.55,0,0,0,6.2,6.73,10.93,10.93,0,0,0,8.61-.36c5.15-2.28,8.12-9.81,2.91-13.63a7.24,7.24,0,0,0-11.13,4.62c-.4,2.54,1.88,4.25,4.22,4.23a4.25,4.25,0,0,0,3-1.61,4.86,4.86,0,0,0,.5-.67,2.29,2.29,0,0,1-1.49-1.81,2,2,0,0,1,1.11-2.52c.81-.18,1.64.51,2,1.55a2.22,2.22,0,0,1,.08.28,6.23,6.23,0,0,1-2.17,6.31,4.84,4.84,0,0,1-6.53-.86c-3.59-4.24-1.7-10.58,3.17-12.78a7.58,7.58,0,0,1,7.22,1,10.08,10.08,0,0,1,3.87,6.71,10.8,10.8,0,0,1-7.62,12.22c-5.94,1.83-11.36-1.6-14-6.88a15.91,15.91,0,0,1,2-16.84c3.73-4.67,9.94-6.51,14.38-10.37a11.46,11.46,0,0,0,4-8.82,7.4,7.4,0,0,0-4.87-7.08,8.45,8.45,0,0,0-7,.58,6.67,6.67,0,0,0-2.93,7.48c.9,2.78,4.25,3.31,6.68,2.5a5.05,5.05,0,0,0,3-2.7,1.92,1.92,0,0,0-.62-2.57,2.37,2.37,0,0,1-1.7.67,1.74,1.74,0,1,1,0-3.39c2.69,0,3.53,2.81,3.71,5.05a5.52,5.52,0,0,1-4.09,5.52c-6.09,2-9.18-5.06-8.21-10C1387.59,379.86,1393.52,377.9,1398.2,380Z"/><path class="cls-1" d="M1358.57,415a6.55,6.55,0,0,1,6.3,4.77c1,3.52-1.16,7.88-5.22,7.56a3.94,3.94,0,0,1-3.53-3.12c-.4-1.53-.34-3.76,1-4.81a1.42,1.42,0,1,1,1.67,2.14,2.1,2.1,0,0,1-1.45.47c-1.38,1.3.94,2.59,2.14,2.78a4.32,4.32,0,0,0,4.15-2.09c1-1.57-.14-3.23-1.5-4.12a8.15,8.15,0,0,0-5-1c-3.53.29-5.92,4.23-5.08,7.55a7.34,7.34,0,0,0,7.56,5.23c3.44-.22,5.91-2.95,8.2-5.19s4.7-4.86,8.31-4.48c2.88.31,4.55,2.46,5.07,5.15s-.25,5.64-2.89,6.67a4.37,4.37,0,0,1-5.58-2.26c-.94-1.87-.38-4.83,1.61-5.74a1.69,1.69,0,1,1,1.47,3,2.14,2.14,0,0,1-1.94,0c-.34.28-.63.62-.52.91a3.35,3.35,0,0,0,1.58,1.53,3.87,3.87,0,0,0,4.45-.81,3.08,3.08,0,0,0,.16-4.18,5.26,5.26,0,0,0-4.38-1.77c-3.52.05-6.14,3.68-8.46,5.9s-4.85,4-8.17,3.82c-6.44-.39-9.12-8.32-6.87-13.59A6.77,6.77,0,0,1,1358.57,415Z"/><path class="cls-1" d="M1376.37,10.62a11.77,11.77,0,0,1-1.44-6.87A4.39,4.39,0,0,1,1378.66,0c2.44-.21,3.43,1.59,2,2.71a9.72,9.72,0,0,0-2.43,2.78,6.41,6.41,0,0,0-.54,4.26C1378.14,11.58,1377.31,12.14,1376.37,10.62Z"/><path class="cls-1" d="M1375.21,18.38a11.69,11.69,0,0,0-6.87-1.44,4.4,4.4,0,0,0-3.74,3.73c-.2,2.44,1.6,3.43,2.72,2a9.57,9.57,0,0,1,2.78-2.43,6.4,6.4,0,0,1,4.26-.54C1376.17,20.15,1376.72,19.32,1375.21,18.38Z"/><path class="cls-1" d="M1398.62,35.33a5.93,5.93,0,0,0,3.4,1.12,2.22,2.22,0,0,0,2.09-1.68c.24-1.22-.61-1.82-1.25-1.18a4.89,4.89,0,0,1-1.54,1.07,3.26,3.26,0,0,1-2.19,0C1398.24,34.39,1397.91,34.77,1398.62,35.33Z"/><path class="cls-1" d="M1391,31.4a8.64,8.64,0,0,1-2,4.76,3.25,3.25,0,0,1-3.83.68c-1.56-.9-1.4-2.41-.09-2.5a7.16,7.16,0,0,0,2.64-.65,4.69,4.69,0,0,0,2.12-2.35C1390.33,30.07,1391.06,30.09,1391,31.4Z"/><path class="cls-1" d="M1353,.91a8,8,0,0,0-3.13,3.29c-.34.82-.61.78-1.26-.11a7.18,7.18,0,0,0-4.58-2.46c-2-.43-17.77-.49-19.9-.54-1.22,0-1.19-1,0-1H1353C1353.58.1,1353.65.63,1353,.91Z"/><path class="cls-1" d="M1403.39,50.26a7.91,7.91,0,0,1-3.29,3.13c-.82.35-.78.61.11,1.26a7.21,7.21,0,0,1,2.46,4.58c.43,2,.49,17.78.54,19.9,0,1.22,1,1.19,1,0V50.33C1404.2,49.7,1403.67,49.63,1403.39,50.26Z"/><path class="cls-1" d="M1350.58,6c2.43-5.42,10.26-6.55,15.28-4.74,5.85,2.11,8.47,8.62,11.57,13.48,3.24,5.09,9.59,9.28,15.83,7.19a11.52,11.52,0,0,0,6.73-6.2,10.93,10.93,0,0,0-.36-8.61C1397.36,2,1389.82-1,1386,4.21a7.24,7.24,0,0,0,4.63,11.13c2.53.4,4.24-1.88,4.22-4.22a4.17,4.17,0,0,0-1.61-3,4.32,4.32,0,0,0-.67-.5,2.26,2.26,0,0,1-1.81,1.49A2,2,0,0,1,1388.24,8c-.17-.81.51-1.64,1.55-2l.28-.08a6.23,6.23,0,0,1,6.31,2.17,4.85,4.85,0,0,1-.85,6.53c-4.25,3.59-10.59,1.7-12.78-3.17a7.53,7.53,0,0,1,1-7.22,10,10,0,0,1,6.7-3.87A10.8,10.8,0,0,1,1402.67,8c1.83,5.94-1.6,11.36-6.88,14A15.91,15.91,0,0,1,1379,20c-4.67-3.73-6.51-9.94-10.37-14.38a11.44,11.44,0,0,0-8.82-4,7.4,7.4,0,0,0-7.08,4.87,8.45,8.45,0,0,0,.58,7,6.67,6.67,0,0,0,7.48,2.93c2.78-.9,3.31-4.25,2.51-6.68a5.1,5.1,0,0,0-2.71-3,1.93,1.93,0,0,0-2.57.62,2.37,2.37,0,0,1,.67,1.7,1.74,1.74,0,1,1-3.39,0c0-2.69,2.81-3.53,5-3.71a5.51,5.51,0,0,1,5.52,4.09c2,6.09-5,9.18-10,8.21C1350.44,16.61,1348.48,10.68,1350.58,6Z"/><path class="cls-1" d="M1385.6,45.63a6.55,6.55,0,0,1,4.77-6.3c3.52-1,7.88,1.16,7.56,5.22a3.94,3.94,0,0,1-3.12,3.53c-1.53.4-3.76.34-4.81-1a1.42,1.42,0,1,1,2.14-1.67,2.05,2.05,0,0,1,.47,1.45c1.31,1.38,2.59-.94,2.78-2.14a4.3,4.3,0,0,0-2.09-4.15c-1.57-1-3.23.14-4.12,1.5a8.14,8.14,0,0,0-1,5c.29,3.53,4.23,5.92,7.55,5.08a7.33,7.33,0,0,0,5.22-7.56c-.22-3.44-3-5.91-5.19-8.2s-4.86-4.7-4.48-8.31c.31-2.88,2.46-4.55,5.15-5.07s5.64.25,6.67,2.89a4.37,4.37,0,0,1-2.26,5.58c-1.86.94-4.83.38-5.74-1.61a1.69,1.69,0,1,1,3-1.47,2.14,2.14,0,0,1,0,1.94c.28.34.62.63.91.52a3.35,3.35,0,0,0,1.53-1.58,3.87,3.87,0,0,0-.81-4.45,3.08,3.08,0,0,0-4.18-.16,5.26,5.26,0,0,0-1.77,4.38c0,3.52,3.68,6.14,5.9,8.46s4,4.85,3.83,8.17c-.4,6.44-8.33,9.12-13.59,6.87A6.77,6.77,0,0,1,1385.6,45.63Z"/><line class="cls-2" x1="78.03" y1="0.59" x2="1326.58" y2="0.59"/><line class="cls-2" x1="78.03" y1="433" x2="1326.58" y2="433"/><line class="cls-2" x1="0.5" y1="77.61" x2="0.5" y2="361.25"/><line class="cls-2" x1="1403.67" y1="77.61" x2="1403.67" y2="361.25"/></g></g></svg>